<?xml version="1.0" standalone="no"?>
 <!DOCTYPE svg PUBLIC "-//W3C//DTD SVG 1.1//EN" 
 "http://www.w3.org/Graphics/SVG/1.1/DTD/svg11.dtd"> 
<svg
  xmlns:svg="http://www.w3.org/2000/svg"
  xmlns="http://www.w3.org/2000/svg"
  xmlns:xlink="http://www.w3.org/1999/xlink"
  version="1.1"
  width="1.973580cm" height="3.771900cm" viewBox="0 0 7770 14850">
<title>SVG Picture created as sensorboard-1x-brd.svg date 2020/12/21 16:33:10 </title>
  <desc>Picture generated by PCBNEW </desc>
<g style="fill:#000000; fill-opacity:1;stroke:#000000; stroke-opacity:1;
stroke-linecap:round; stroke-linejoin:round;"
 transform="translate(0 0) scale(1 1)">
</g>
<g style="fill:#000000; fill-opacity:0.0; 
stroke:#000000; stroke-width:-0.000393701; stroke-opacity:1; 
stroke-linecap:round; stroke-linejoin:round;">
<g >
</g>
<g >
</g>
<g >
</g>
<g >
</g>
<g >
</g>
<g >
</g>
<g >
</g>
<g >
</g>
</g>
<g style="fill:#000000; fill-opacity:0.0; 
stroke:#000000; stroke-width:-0.000393701; stroke-opacity:1; 
stroke-linecap:round; stroke-linejoin:round;">
<g >
</g>
<g >
</g>
<g >
</g>
<g >
</g>
<g >
</g>
<g >
</g>
<g >
</g>
<g >
</g>
<g >
</g>
<g >
</g>
</g>
<g style="fill:#000000; fill-opacity:0.0; 
stroke:#000000; stroke-width:-0.000393701; stroke-opacity:1; 
stroke-linecap:round; stroke-linejoin:round;">
</g>
<g style="fill:#840084; fill-opacity:0.0; 
stroke:#840084; stroke-width:-0.000393701; stroke-opacity:1; 
stroke-linecap:round; stroke-linejoin:round;">
</g>
<g style="fill:#840084; fill-opacity:0.0; 
stroke:#840084; stroke-width:60.2362; stroke-opacity:1; 
stroke-linecap:round; stroke-linejoin:round;">
<g transform="rotate(-45 3225.19 3584.62)">
<text x="3225.19" y="3742.1"
transform="scale(-1 1) translate(-6450.373228 0)"
textLength="1991.43" font-size="419.947" lengthAdjust="spacingAndGlyphs"
text-anchor="middle" opacity="0">jkominek</text>
</g>
<path d="M3856 2858
L4047 3049
L4078 3059
L4110 3049
L4121 3038
" />
<path d="M3781 2783
L3803 2783
L3803 2805
L3781 2805
L3781 2783
L3803 2805
" />
<path d="M3898 3112
L3675 2889
" />
<path d="M3792 3049
L3813 3197
" />
<path d="M3665 3049
L3834 3049
" />
<path d="M3686 3324
L3697 3292
L3697 3271
L3686 3239
L3622 3176
L3591 3165
L3569 3165
L3538 3176
L3506 3208
L3495 3239
L3495 3261
L3506 3292
L3569 3356
L3601 3367
L3622 3367
L3654 3356
L3686 3324
" />
<path d="M3516 3494
L3368 3345
" />
<path d="M3389 3367
L3368 3367
L3336 3377
L3304 3409
L3294 3441
L3304 3473
L3421 3589
" />
<path d="M3304 3473
L3272 3462
L3241 3473
L3209 3505
L3198 3536
L3209 3568
L3325 3685
" />
<path d="M3219 3791
L3071 3642
" />
<path d="M2997 3568
L3018 3568
L3018 3589
L2997 3589
L2997 3568
L3018 3589
" />
<path d="M2965 3748
L3113 3897
" />
<path d="M2986 3770
L2965 3770
L2933 3780
L2901 3812
L2891 3844
L2901 3876
L3018 3992
" />
<path d="M2816 4173
L2848 4162
L2891 4120
L2901 4088
L2891 4056
L2806 3971
L2774 3961
L2742 3971
L2700 4014
L2689 4045
L2700 4077
L2721 4098
L2848 4014
" />
<path d="M2721 4289
L2498 4067
" />
<path d="M2615 4226
L2636 4374
" />
<path d="M2488 4226
L2657 4226
" />
<g transform="rotate(-45 3601.85 3961.28)">
<text x="3601.85" y="4118.76"
transform="scale(-1 1) translate(-7203.692126 0)"
textLength="4121.17" font-size="419.947" lengthAdjust="spacingAndGlyphs"
text-anchor="middle" opacity="0">piano-conversion</text>
</g>
<path d="M4985 2481
L5208 2704
" />
<path d="M4996 2492
L4964 2503
L4922 2545
L4911 2577
L4911 2598
L4922 2630
L4985 2693
L5017 2704
L5038 2704
L5070 2693
L5113 2651
L5123 2619
" />
<path d="M4932 2831
L4784 2683
" />
<path d="M4710 2609
L4731 2609
L4731 2630
L4710 2630
L4710 2609
L4731 2630
" />
<path d="M4731 3033
L4614 2916
L4604 2884
L4614 2853
L4657 2810
L4688 2799
" />
<path d="M4720 3022
L4752 3012
L4805 2959
L4816 2927
L4805 2895
L4784 2874
L4752 2863
L4720 2874
L4667 2927
L4635 2937
" />
<path d="M4476 2990
L4625 3139
" />
<path d="M4497 3012
L4476 3012
L4444 3022
L4413 3054
L4402 3086
L4413 3118
L4529 3234
" />
<path d="M4391 3372
L4402 3340
L4402 3319
L4391 3287
L4328 3224
L4296 3213
L4275 3213
L4243 3224
L4211 3256
L4201 3287
L4201 3309
L4211 3340
L4275 3404
L4307 3415
L4328 3415
L4360 3404
L4391 3372
" />
<path d="M4137 3457
L3967 3627
" />
<path d="M3840 3902
L3872 3892
L3914 3849
L3925 3818
L3925 3796
L3914 3765
L3851 3701
L3819 3690
L3798 3690
L3766 3701
L3723 3743
L3713 3775
" />
<path d="M3723 4040
L3734 4009
L3734 3987
L3723 3955
L3660 3892
L3628 3881
L3607 3881
L3575 3892
L3543 3924
L3532 3955
L3532 3977
L3543 4009
L3607 4072
L3638 4083
L3660 4083
L3691 4072
L3723 4040
" />
<path d="M3405 4062
L3554 4210
" />
<path d="M3426 4083
L3405 4083
L3373 4093
L3342 4125
L3331 4157
L3342 4189
L3458 4305
" />
<path d="M3225 4242
L3320 4443
L3119 4348
" />
<path d="M3087 4655
L3119 4645
L3161 4602
L3172 4571
L3161 4539
L3076 4454
L3045 4443
L3013 4454
L2970 4496
L2960 4528
L2970 4560
L2992 4581
L3119 4496
" />
<path d="M2992 4772
L2843 4624
" />
<path d="M2885 4666
L2854 4655
L2832 4655
L2801 4666
L2779 4687
" />
<path d="M2854 4889
L2843 4921
L2801 4963
L2769 4974
L2737 4963
L2726 4952
L2716 4921
L2726 4889
L2758 4857
L2769 4825
L2758 4793
L2748 4783
L2716 4772
L2684 4783
L2652 4815
L2642 4846
" />
<path d="M2673 5090
L2525 4942
" />
<path d="M2451 4868
L2472 4868
L2472 4889
L2451 4889
L2451 4868
L2472 4889
" />
<path d="M2536 5228
L2546 5196
L2546 5175
L2536 5143
L2472 5080
L2440 5069
L2419 5069
L2387 5080
L2355 5111
L2345 5143
L2345 5164
L2355 5196
L2419 5260
L2451 5271
L2472 5271
L2504 5260
L2536 5228
" />
<path d="M2217 5249
L2366 5398
" />
<path d="M2239 5271
L2217 5271
L2186 5281
L2154 5313
L2143 5345
L2154 5377
L2270 5493
" />
<g transform="rotate(-45 3978.51 4337.94)">
<text x="3978.51" y="4495.42"
transform="scale(-1 1) translate(-7957.011024 0)"
textLength="1466.5" font-size="419.947" lengthAdjust="spacingAndGlyphs"
text-anchor="middle" opacity="0">sensor</text>
</g>
<path d="M4572 3924
L4561 3956
L4519 3998
L4487 4009
L4455 3998
L4445 3987
L4434 3956
L4445 3924
L4476 3892
L4487 3860
L4476 3828
L4466 3818
L4434 3807
L4402 3818
L4370 3850
L4360 3881
" />
<path d="M4296 4200
L4328 4189
L4370 4147
L4381 4115
L4370 4083
L4286 3998
L4254 3987
L4222 3998
L4180 4040
L4169 4072
L4180 4104
L4201 4125
L4328 4040
" />
<path d="M4052 4168
L4201 4316
" />
<path d="M4073 4189
L4052 4189
L4020 4200
L3989 4231
L3978 4263
L3989 4295
L4105 4412
" />
<path d="M3999 4497
L3989 4528
L3946 4571
L3914 4581
L3883 4571
L3872 4560
L3861 4528
L3872 4497
L3904 4465
L3914 4433
L3904 4401
L3893 4390
L3861 4380
L3830 4390
L3798 4422
L3787 4454
" />
<path d="M3787 4730
L3798 4698
L3798 4677
L3787 4645
L3723 4581
L3692 4571
L3670 4571
L3639 4581
L3607 4613
L3596 4645
L3596 4666
L3607 4698
L3670 4762
L3702 4772
L3723 4772
L3755 4762
L3787 4730
" />
<path d="M3617 4900
L3469 4751
" />
<path d="M3511 4793
L3480 4783
L3458 4783
L3427 4793
L3405 4815
" />
<g transform="rotate(-45 4355.16 4714.6)">
<text x="4355.16" y="4872.08"
transform="scale(-1 1) translate(-8710.329921 0)"
textLength="926.567" font-size="419.947" lengthAdjust="spacingAndGlyphs"
text-anchor="middle" opacity="0">rev0</text>
</g>
<path d="M4758 4513
L4609 4364
" />
<path d="M4652 4407
L4620 4396
L4599 4396
L4567 4407
L4546 4428
" />
<path d="M4524 4725
L4556 4714
L4599 4672
L4609 4640
L4599 4608
L4514 4523
L4482 4513
L4450 4523
L4408 4566
L4397 4597
L4408 4629
L4429 4650
L4556 4566
" />
<path d="M4302 4672
L4397 4873
L4196 4778
" />
<path d="M3994 4831
L3973 4852
L3962 4884
L3962 4905
L3973 4937
L4005 4990
L4058 5043
L4111 5075
L4143 5085
L4164 5085
L4196 5075
L4217 5053
L4227 5022
L4227 5000
L4217 4969
L4185 4916
L4132 4863
L4079 4831
L4047 4820
L4026 4820
L3994 4831
" />
<g transform="rotate(-345 4676 9858.27)">
<text x="4676" y="10015.7"
transform="scale(-1 1) translate(-9352.005512 0)"
textLength="986.56" font-size="419.947" lengthAdjust="spacingAndGlyphs"
text-anchor="middle" opacity="0">Cath</text>
</g>
<path d="M4914 10038
L4925 10057
L4965 10083
L4994 10090
L5041 10088
L5078 10066
L5100 10041
L5130 9987
L5142 9944
L5143 9882
L5136 9849
L5115 9812
L5075 9786
L5046 9779
L4999 9781
L4980 9792
" />
<path d="M4646 9997
L4689 9838
L4711 9813
L4744 9806
L4802 9822
L4827 9844
" />
<path d="M4650 9983
L4675 10005
L4747 10025
L4780 10018
L4802 9993
L4810 9964
L4803 9931
L4778 9909
L4706 9889
L4681 9867
" />
<path d="M4599 9767
L4483 9736
" />
<path d="M4583 9654
L4513 9915
L4490 9940
L4458 9947
L4429 9939
" />
<path d="M4327 9912
L4409 9608
" />
<path d="M4197 9877
L4239 9718
L4262 9693
L4295 9686
L4338 9697
L4363 9720
L4374 9738
" />
<g transform="rotate(-345 4676 10842.5)">
<text x="4676" y="11000"
transform="scale(-1 1) translate(-9352.005512 0)"
textLength="851.577" font-size="419.947" lengthAdjust="spacingAndGlyphs"
text-anchor="middle" opacity="0">Coll</text>
</g>
<path d="M4849 11005
L4860 11023
L4899 11050
L4928 11057
L4976 11054
L5012 11033
L5035 11008
L5065 10954
L5076 10911
L5077 10849
L5071 10816
L5049 10779
L5010 10753
L4981 10745
L4934 10748
L4915 10759
" />
<path d="M4668 10987
L4700 10981
L4719 10970
L4741 10945
L4764 10858
L4758 10825
L4747 10807
L4722 10785
L4678 10773
L4646 10780
L4627 10790
L4605 10815
L4582 10902
L4588 10935
L4599 10954
L4624 10976
L4668 10987
" />
<path d="M4392 10914
L4425 10907
L4447 10882
L4517 10621
" />
<path d="M4233 10871
L4266 10864
L4288 10839
L4358 10578
" />
</g>
<g style="fill:#840084; fill-opacity:0.0; 
stroke:#840084; stroke-width:59.0551; stroke-opacity:1; 
stroke-linecap:round; stroke-linejoin:round;">
<text x="2116.95" y="10842.5"
transform="scale(-1 1) translate(-4233.895276 0)"
textLength="802.833" font-size="524.934" lengthAdjust="spacingAndGlyphs"
text-anchor="middle" opacity="0">Em</text>
<path d="M2463 10617
L2332 10617
" />
<path d="M2276 10823
L2463 10823
L2463 10430
L2276 10430
" />
<path d="M2107 10823
L2107 10561
" />
<path d="M2107 10598
L2088 10580
L2051 10561
L1995 10561
L1957 10580
L1938 10617
L1938 10823
" />
<path d="M1938 10617
L1920 10580
L1882 10561
L1826 10561
L1788 10580
L1770 10617
L1770 10823
" />
<text x="2116.95" y="9464.57"
transform="scale(-1 1) translate(-4233.895276 0)"
textLength="616.892" font-size="524.934" lengthAdjust="spacingAndGlyphs"
text-anchor="middle" opacity="0">An</text>
<path d="M2388 9333
L2201 9333
" />
<path d="M2426 9445
L2295 9052
L2163 9445
" />
<path d="M2032 9183
L2032 9445
" />
<path d="M2032 9220
L2013 9202
L1976 9183
L1920 9183
L1882 9202
L1863 9239
L1863 9445
" />
<g >
</g>
</g>
<g style="fill:#000000; fill-opacity:0.0; 
stroke:#000000; stroke-width:59.0551; stroke-opacity:1; 
stroke-linecap:round; stroke-linejoin:round;">
<g >
</g>
<g >
</g>
<g >
</g>
<g style="fill:#848400; fill-opacity:0.0; 
stroke:#848400; stroke-width:59.0551; stroke-opacity:1; 
stroke-linecap:round; stroke-linejoin:round;">
</g>
<g style="fill:#848400; fill-opacity:0.0; 
stroke:#848400; stroke-width:0; stroke-opacity:1; 
stroke-linecap:round; stroke-linejoin:round;">
</g>
<g style="fill:#848400; fill-opacity:1.0; 
stroke:#848400; stroke-width:0; stroke-opacity:1; 
stroke-linecap:round; stroke-linejoin:round;">
<path style="fill:#848400; fill-opacity:1.0; 
stroke:#848400; stroke-width:0; stroke-opacity:1; 
stroke-linecap:round; stroke-linejoin:round;fill-rule:evenodd;"
d="M 3209.41,6492.6
3218.95,6494.01
3228.31,6496.36
3237.39,6499.61
3246.11,6503.73
3254.38,6508.69
3262.12,6514.43
3269.27,6520.91
3275.74,6528.05
3281.49,6535.8
3286.45,6544.07
3290.57,6552.79
3293.82,6561.87
3296.16,6571.22
3297.58,6580.76
3298.05,6590.39
3298.05,7023.78
3297.58,7033.41
3296.16,7042.95
3293.82,7052.31
3290.57,7061.39
3286.45,7070.1
3281.49,7078.37
3275.74,7086.12
3269.27,7093.27
3262.12,7099.74
3254.38,7105.49
3246.11,7110.44
3237.39,7114.57
3228.31,7117.82
3218.95,7120.16
3209.41,7121.57
3199.78,7122.05
2766.4,7122.05
2756.76,7121.57
2747.23,7120.16
2737.87,7117.82
2728.79,7114.57
2720.07,7110.44
2711.8,7105.49
2704.06,7099.74
2696.91,7093.27
2690.43,7086.12
2684.69,7078.37
2679.73,7070.1
2675.61,7061.39
2672.36,7052.31
2670.02,7042.95
2668.6,7033.41
2668.13,7023.78
2668.13,6590.39
2668.6,6580.76
2670.02,6571.22
2672.36,6561.87
2675.61,6552.79
2679.73,6544.07
2684.69,6535.8
2690.43,6528.05
2696.91,6520.91
2704.06,6514.43
2711.8,6508.69
2720.07,6503.73
2728.79,6499.61
2737.87,6496.36
2747.23,6494.01
2756.76,6492.6
2766.4,6492.13
3199.78,6492.13
Z" /> 
<circle cx="3983.09" cy="6807.09" r="314.961" /> 
</g>
<g style="fill:#848400; fill-opacity:1.0; 
stroke:#848400; stroke-width:39.3701; stroke-opacity:1; 
stroke-linecap:round; stroke-linejoin:round;">
</g>
<g style="fill:#848400; fill-opacity:1.0; 
stroke:#848400; stroke-width:0; stroke-opacity:1; 
stroke-linecap:round; stroke-linejoin:round;">
<circle cx="3983.09" cy="5704.72" r="314.961" /> 
</g>
<g style="fill:#848400; fill-opacity:1.0; 
stroke:#848400; stroke-width:39.3701; stroke-opacity:1; 
stroke-linecap:round; stroke-linejoin:round;">
</g>
<g style="fill:#848400; fill-opacity:1.0; 
stroke:#848400; stroke-width:0; stroke-opacity:1; 
stroke-linecap:round; stroke-linejoin:round;">
<circle cx="2983.09" cy="5704.72" r="314.961" /> 
</g>
<g style="fill:#848400; fill-opacity:1.0; 
stroke:#848400; stroke-width:39.3701; stroke-opacity:1; 
stroke-linecap:round; stroke-linejoin:round;">
</g>
<g >
</g>
<g style="fill:#848400; fill-opacity:1.0; 
stroke:#848400; stroke-width:39.3701; stroke-opacity:1; 
stroke-linecap:round; stroke-linejoin:round;">
</g>
<g style="fill:#848400; fill-opacity:1.0; 
stroke:#848400; stroke-width:0; stroke-opacity:1; 
stroke-linecap:round; stroke-linejoin:round;">
<circle cx="2987.03" cy="10267.7" r="334.646" /> 
<circle cx="2987.03" cy="9267.72" r="334.646" /> 
<circle cx="3987.03" cy="10267.7" r="334.646" /> 
<path style="fill:#848400; fill-opacity:1.0; 
stroke:#848400; stroke-width:0; stroke-opacity:1; 
stroke-linecap:round; stroke-linejoin:round;fill-rule:evenodd;"
d="M 3652.38,8933.07
4321.67,8933.07
4321.67,9602.36
3652.38,9602.36
Z" /> 
</g>
<g >
</g>
<g >
</g>
<g >
</g>
<g >
</g>
<g >
</g>
<g >
</g>
<g style="fill:#008400; fill-opacity:1.0; 
stroke:#008400; stroke-width:0; stroke-opacity:1; 
stroke-linecap:round; stroke-linejoin:round;">
<g >
</g>
<g style="fill:#008400; fill-opacity:1.0; 
stroke:#008400; stroke-width:100; stroke-opacity:1; 
stroke-linecap:round; stroke-linejoin:round;">
<path style="fill:#008400; fill-opacity:1.0; 
stroke:#008400; stroke-width:100; stroke-opacity:1; 
stroke-linecap:round; stroke-linejoin:round;fill-rule:evenodd;"
d="M 5006.71,10792.5
4238.25,10792.5
4288.96,10768.4
4380.83,10699.8
4457.57,10614.7
4516.22,10516.2
4554.54,10408.2
4507.03,10317.7
4037.03,10317.7
4037.03,10325.6
3938.6,10325.6
3938.6,10209.8
4037.03,10209.8
4037.03,10217.7
4507.03,10217.7
4554.54,10127.2
4516.22,10019.2
4457.57,9920.73
4387.96,9843.5
4417.81,9834.45
4461.24,9811.24
4499.3,9779.99
4530.54,9741.93
4553.76,9698.5
4568.05,9651.37
4572.88,9602.36
4572.88,8933.07
4568.05,8884.06
4553.76,8836.94
4530.54,8793.51
4499.3,8755.44
4461.24,8724.2
4417.81,8700.98
4370.68,8686.69
4321.67,8681.86
3938.6,8681.86
3938.6,7372.05
4038.73,7372.05
4147.88,7350.34
4250.7,7307.75
4343.23,7245.92
4421.92,7167.23
4483.75,7074.7
4526.34,6971.88
4548.05,6862.73
4548.05,6751.44
4526.34,6642.29
4483.75,6539.48
4421.92,6446.95
4343.23,6368.25
4250.7,6306.43
4147.88,6263.84
4112.15,6256.73
4120.94,6255.43
4225.72,6217.95
4275.02,6191.6
4303.21,6095.55
3983.09,5775.44
3977.52,5781
3938.6,5742.08
3938.6,5667.37
3977.52,5628.45
3983.09,5634.01
3988.66,5628.45
4059.37,5699.16
4053.8,5704.72
4373.92,6024.84
4469.97,5996.66
4517.57,5896.06
4544.62,5788.12
4550.1,5676.96
4533.79,5566.88
4496.32,5462.09
4469.97,5412.79
4373.92,5384.61
4377.82,5380.71
5006.71,5380.71
Z" /> 
</g>
</g>
<g style="fill:#008400; fill-opacity:1.0; 
stroke:#008400; stroke-width:100; stroke-opacity:1; 
stroke-linecap:round; stroke-linejoin:round;">
<g >
<path style="fill:#008400; fill-opacity:1.0; 
stroke:#008400; stroke-width:100; stroke-opacity:1; 
stroke-linecap:round; stroke-linejoin:round;fill-rule:evenodd;"
d="M 2592.26,5384.61
2496.21,5412.79
2448.61,5513.38
2421.55,5621.33
2416.07,5732.49
2432.39,5842.57
2469.86,5947.36
2496.21,5996.66
2592.26,6024.84
2912.38,5704.72
2906.81,5699.16
2977.52,5628.45
2983.09,5634.01
2988.66,5628.45
3059.37,5699.16
3053.8,5704.72
3059.37,5710.29
2988.66,5781
2983.09,5775.44
2662.97,6095.55
2691.15,6191.6
2791.75,6239.2
2798.59,6240.92
2766.4,6240.92
2698.22,6247.63
2632.66,6267.52
2572.24,6299.81
2519.28,6343.28
2475.82,6396.24
2443.52,6456.66
2423.63,6522.21
2416.92,6590.39
2416.92,7023.78
2423.63,7091.96
2443.52,7157.52
2475.82,7217.94
2519.28,7270.9
2572.24,7314.36
2632.66,7346.65
2698.22,7366.54
2766.4,7373.26
3199.78,7373.26
3248.05,7368.5
3248.05,8743.02
3157.56,8705.54
3044.61,8683.07
2929.44,8683.07
2816.49,8705.54
2710.09,8749.61
2614.34,8813.59
2532.9,8895.03
2468.92,8990.78
2424.85,9097.18
2402.38,9210.13
2402.38,9325.3
2424.85,9438.25
2468.92,9544.65
2532.9,9640.41
2614.34,9721.84
2683.64,9768.15
2593.22,9835.6
2516.48,9920.73
2457.83,10019.2
2419.51,10127.2
2467.02,10217.7
2937.03,10217.7
2937.03,10209.8
3037.03,10209.8
3037.03,10217.7
3044.9,10217.7
3044.9,10317.7
3037.03,10317.7
3037.03,10325.6
2937.03,10325.6
2937.03,10317.7
2467.02,10317.7
2419.51,10408.2
2457.83,10516.2
2505.14,10595.7
1983.09,10595.7
1983.09,5380.71
2588.36,5380.71
Z" /> 
</g>
</g>
</g>
<g style="fill:#FFFFFF; fill-opacity:1.0; 
stroke:#FFFFFF; stroke-width:100; stroke-opacity:1; 
stroke-linecap:round; stroke-linejoin:round;">
</g>
<g style="fill:#FFFFFF; fill-opacity:1.0; 
stroke:#FFFFFF; stroke-width:0; stroke-opacity:1; 
stroke-linecap:round; stroke-linejoin:round;">
<circle cx="2983.09" cy="6807.09" r="157.48" /> 
</g>
<g style="fill:#FFFFFF; fill-opacity:1.0; 
stroke:#FFFFFF; stroke-width:39.3701; stroke-opacity:1; 
stroke-linecap:round; stroke-linejoin:round;">
</g>
<g style="fill:#FFFFFF; fill-opacity:1.0; 
stroke:#FFFFFF; stroke-width:0; stroke-opacity:1; 
stroke-linecap:round; stroke-linejoin:round;">
<circle cx="3983.09" cy="6807.09" r="157.48" /> 
</g>
<g style="fill:#FFFFFF; fill-opacity:1.0; 
stroke:#FFFFFF; stroke-width:39.3701; stroke-opacity:1; 
stroke-linecap:round; stroke-linejoin:round;">
</g>
<g style="fill:#FFFFFF; fill-opacity:1.0; 
stroke:#FFFFFF; stroke-width:0; stroke-opacity:1; 
stroke-linecap:round; stroke-linejoin:round;">
<circle cx="3983.09" cy="5704.72" r="157.48" /> 
</g>
<g style="fill:#FFFFFF; fill-opacity:1.0; 
stroke:#FFFFFF; stroke-width:39.3701; stroke-opacity:1; 
stroke-linecap:round; stroke-linejoin:round;">
</g>
<g style="fill:#FFFFFF; fill-opacity:1.0; 
stroke:#FFFFFF; stroke-width:0; stroke-opacity:1; 
stroke-linecap:round; stroke-linejoin:round;">
<circle cx="2983.09" cy="5704.72" r="157.48" /> 
</g>
<g style="fill:#FFFFFF; fill-opacity:1.0; 
stroke:#FFFFFF; stroke-width:39.3701; stroke-opacity:1; 
stroke-linecap:round; stroke-linejoin:round;">
</g>
<g style="fill:#FFFFFF; fill-opacity:1.0; 
stroke:#FFFFFF; stroke-width:0; stroke-opacity:1; 
stroke-linecap:round; stroke-linejoin:round;">
<circle cx="2987.03" cy="10267.7" r="196.85" /> 
</g>
<g style="fill:#FFFFFF; fill-opacity:1.0; 
stroke:#FFFFFF; stroke-width:39.3701; stroke-opacity:1; 
stroke-linecap:round; stroke-linejoin:round;">
</g>
<g style="fill:#FFFFFF; fill-opacity:1.0; 
stroke:#FFFFFF; stroke-width:0; stroke-opacity:1; 
stroke-linecap:round; stroke-linejoin:round;">
<circle cx="2987.03" cy="9267.72" r="196.85" /> 
</g>
<g style="fill:#FFFFFF; fill-opacity:1.0; 
stroke:#FFFFFF; stroke-width:39.3701; stroke-opacity:1; 
stroke-linecap:round; stroke-linejoin:round;">
</g>
<g style="fill:#FFFFFF; fill-opacity:1.0; 
stroke:#FFFFFF; stroke-width:0; stroke-opacity:1; 
stroke-linecap:round; stroke-linejoin:round;">
<circle cx="3987.03" cy="10267.7" r="196.85" /> 
</g>
<g style="fill:#FFFFFF; fill-opacity:1.0; 
stroke:#FFFFFF; stroke-width:39.3701; stroke-opacity:1; 
stroke-linecap:round; stroke-linejoin:round;">
</g>
<g style="fill:#FFFFFF; fill-opacity:1.0; 
stroke:#FFFFFF; stroke-width:0; stroke-opacity:1; 
stroke-linecap:round; stroke-linejoin:round;">
<circle cx="3987.03" cy="9267.72" r="196.85" /> 
</g>
<g style="fill:#FFFFFF; fill-opacity:1.0; 
stroke:#FFFFFF; stroke-width:39.3701; stroke-opacity:1; 
stroke-linecap:round; stroke-linejoin:round;">
</g>
<g style="fill:#FFFFFF; fill-opacity:1.0; 
stroke:#FFFFFF; stroke-width:0; stroke-opacity:1; 
stroke-linecap:round; stroke-linejoin:round;">
<circle cx="3494.9" cy="1787.4" r="629.921" /> 
</g>
<g style="fill:#FFFFFF; fill-opacity:1.0; 
stroke:#FFFFFF; stroke-width:39.3701; stroke-opacity:1; 
stroke-linecap:round; stroke-linejoin:round;">
</g>
<g style="fill:#000000; fill-opacity:1.0; 
stroke:#000000; stroke-width:39.3701; stroke-opacity:1; 
stroke-linecap:round; stroke-linejoin:round;">
<g >
</g>
<g style="fill:#840000; fill-opacity:1.0; 
stroke:#840000; stroke-width:39.3701; stroke-opacity:1; 
stroke-linecap:round; stroke-linejoin:round;">
</g>
<g style="fill:#840000; fill-opacity:1.0; 
stroke:#840000; stroke-width:0; stroke-opacity:1; 
stroke-linecap:round; stroke-linejoin:round;">
<path style="fill:#840000; fill-opacity:1.0; 
stroke:#840000; stroke-width:0; stroke-opacity:1; 
stroke-linecap:round; stroke-linejoin:round;fill-rule:evenodd;"
d="M 4577.58,7988.19
5168.13,7988.19
5168.13,8578.74
4577.58,8578.74
Z" /> 
</g>
<g >
</g>
<g style="fill:#840000; fill-opacity:1.0; 
stroke:#840000; stroke-width:0; stroke-opacity:1; 
stroke-linecap:round; stroke-linejoin:round;">
<path style="fill:#840000; fill-opacity:1.0; 
stroke:#840000; stroke-width:0; stroke-opacity:1; 
stroke-linecap:round; stroke-linejoin:round;fill-rule:evenodd;"
d="M 1821.67,8578.74
1821.67,7988.19
2412.22,7988.19
2412.22,8578.74
Z" /> 
</g>
<g >
</g>
<g style="fill:#848400; fill-opacity:1.0; 
stroke:#848400; stroke-width:0; stroke-opacity:1; 
stroke-linecap:round; stroke-linejoin:round;">
<path style="fill:#848400; fill-opacity:1.0; 
stroke:#848400; stroke-width:0; stroke-opacity:1; 
stroke-linecap:round; stroke-linejoin:round;fill-rule:evenodd;"
d="M 3209.41,6492.6
3218.95,6494.01
3228.31,6496.36
3237.39,6499.61
3246.11,6503.73
3254.38,6508.69
3262.12,6514.43
3269.27,6520.91
3275.74,6528.05
3281.49,6535.8
3286.45,6544.07
3290.57,6552.79
3293.82,6561.87
3296.16,6571.22
3297.58,6580.76
3298.05,6590.39
3298.05,7023.78
3297.58,7033.41
3296.16,7042.95
3293.82,7052.31
3290.57,7061.39
3286.45,7070.1
3281.49,7078.37
3275.74,7086.12
3269.27,7093.27
3262.12,7099.74
3254.38,7105.49
3246.11,7110.44
3237.39,7114.57
3228.31,7117.82
3218.95,7120.16
3209.41,7121.57
3199.78,7122.05
2766.4,7122.05
2756.76,7121.57
2747.23,7120.16
2737.87,7117.82
2728.79,7114.57
2720.07,7110.44
2711.8,7105.49
2704.06,7099.74
2696.91,7093.27
2690.43,7086.12
2684.69,7078.37
2679.73,7070.1
2675.61,7061.39
2672.36,7052.31
2670.02,7042.95
2668.6,7033.41
2668.13,7023.78
2668.13,6590.39
2668.6,6580.76
2670.02,6571.22
2672.36,6561.87
2675.61,6552.79
2679.73,6544.07
2684.69,6535.8
2690.43,6528.05
2696.91,6520.91
2704.06,6514.43
2711.8,6508.69
2720.07,6503.73
2728.79,6499.61
2737.87,6496.36
2747.23,6494.01
2756.76,6492.6
2766.4,6492.13
3199.78,6492.13
Z" /> 
<circle cx="3983.09" cy="6807.09" r="314.961" /> 
</g>
<g style="fill:#848400; fill-opacity:1.0; 
stroke:#848400; stroke-width:39.3701; stroke-opacity:1; 
stroke-linecap:round; stroke-linejoin:round;">
</g>
<g style="fill:#848400; fill-opacity:1.0; 
stroke:#848400; stroke-width:0; stroke-opacity:1; 
stroke-linecap:round; stroke-linejoin:round;">
<circle cx="3983.09" cy="5704.72" r="314.961" /> 
</g>
<g style="fill:#848400; fill-opacity:1.0; 
stroke:#848400; stroke-width:39.3701; stroke-opacity:1; 
stroke-linecap:round; stroke-linejoin:round;">
</g>
<g style="fill:#848400; fill-opacity:1.0; 
stroke:#848400; stroke-width:0; stroke-opacity:1; 
stroke-linecap:round; stroke-linejoin:round;">
<circle cx="2983.09" cy="5704.72" r="314.961" /> 
</g>
<g style="fill:#848400; fill-opacity:1.0; 
stroke:#848400; stroke-width:39.3701; stroke-opacity:1; 
stroke-linecap:round; stroke-linejoin:round;">
</g>
<g >
</g>
<g style="fill:#848400; fill-opacity:1.0; 
stroke:#848400; stroke-width:39.3701; stroke-opacity:1; 
stroke-linecap:round; stroke-linejoin:round;">
</g>
<g style="fill:#848400; fill-opacity:1.0; 
stroke:#848400; stroke-width:0; stroke-opacity:1; 
stroke-linecap:round; stroke-linejoin:round;">
<circle cx="2987.03" cy="10267.7" r="334.646" /> 
<circle cx="2987.03" cy="9267.72" r="334.646" /> 
<circle cx="3987.03" cy="10267.7" r="334.646" /> 
<path style="fill:#848400; fill-opacity:1.0; 
stroke:#848400; stroke-width:0; stroke-opacity:1; 
stroke-linecap:round; stroke-linejoin:round;fill-rule:evenodd;"
d="M 3652.38,8933.07
4321.67,8933.07
4321.67,9602.36
3652.38,9602.36
Z" /> 
</g>
<g >
</g>
<g >
</g>
<g style="fill:#840000; fill-opacity:1.0; 
stroke:#840000; stroke-width:0; stroke-opacity:1; 
stroke-linecap:round; stroke-linejoin:round;">
<circle cx="4676" cy="4149.61" r="295.276" /> 
</g>
<g style="fill:#840000; fill-opacity:1.0; 
stroke:#840000; stroke-width:39.3701; stroke-opacity:1; 
stroke-linecap:round; stroke-linejoin:round;">
</g>
<g >
</g>
<g style="fill:#840000; fill-opacity:1.0; 
stroke:#840000; stroke-width:39.3701; stroke-opacity:1; 
stroke-linecap:round; stroke-linejoin:round;">
</g>
<g style="fill:#840000; fill-opacity:1.0; 
stroke:#840000; stroke-width:0; stroke-opacity:1; 
stroke-linecap:round; stroke-linejoin:round;">
<circle cx="2313.8" cy="4149.61" r="295.276" /> 
</g>
<g style="fill:#840000; fill-opacity:1.0; 
stroke:#840000; stroke-width:39.3701; stroke-opacity:1; 
stroke-linecap:round; stroke-linejoin:round;">
</g>
<g >
</g>
<g >
</g>
<g style="fill:#840000; fill-opacity:1.0; 
stroke:#840000; stroke-width:39.3701; stroke-opacity:1; 
stroke-linecap:round; stroke-linejoin:round;">
</g>
<g style="fill:#840000; fill-opacity:1.0; 
stroke:#840000; stroke-width:393.701; stroke-opacity:1; 
stroke-linecap:round; stroke-linejoin:round;">
</g>
<g style="fill:#840000; fill-opacity:0.0; 
stroke:#840000; stroke-width:393.701; stroke-opacity:1; 
stroke-linecap:round; stroke-linejoin:round;">
<path d="M2983 4818
L2313 4149
" />
<path d="M2983 5704
L2983 4818
" />
<path d="M3983 4842
L4676 4149
" />
<path d="M3983 5704
L3983 4842
" />
</g>
<g >
</g>
<g style="fill:#840000; fill-opacity:0.0; 
stroke:#840000; stroke-width:393.701; stroke-opacity:1; 
stroke-linecap:round; stroke-linejoin:round;">
<g >
</g>
<g style="fill:#840000; fill-opacity:1.0; 
stroke:#840000; stroke-width:100; stroke-opacity:1; 
stroke-linecap:round; stroke-linejoin:round;">
<path style="fill:#840000; fill-opacity:1.0; 
stroke:#840000; stroke-width:100; stroke-opacity:1; 
stroke-linecap:round; stroke-linejoin:round;fill-rule:evenodd;"
d="M 5006.71,7738.05
4985.35,7738.19
4922.85,7800.69
4922.85,8233.46
4930.73,8233.46
4930.73,8333.46
4922.85,8333.46
4922.85,8766.24
4985.35,8828.74
5006.71,8828.88
5006.71,9611.42
4571.99,9611.42
4572.88,9602.36
4571.67,9380.22
4509.17,9317.72
4037.03,9317.72
4037.03,9325.59
3938.6,9325.59
3938.6,8745.57
4037.03,8745.57
4037.03,9217.72
4509.17,9217.72
4571.67,9155.22
4572.88,8933.07
4568.05,8884.06
4553.76,8836.94
4548.49,8827.09
4577.58,8829.95
4760.35,8828.74
4822.85,8766.24
4822.85,8333.46
4390.08,8333.46
4327.58,8395.96
4326.37,8578.74
4331.19,8627.75
4345.49,8674.87
4350.76,8684.73
4321.67,8681.86
4099.53,8683.07
4037.03,8745.57
3938.6,8745.57
3938.6,7988.19
4326.37,7988.19
4327.58,8170.96
4390.08,8233.46
4822.85,8233.46
4822.85,7800.69
4760.35,7738.19
4577.58,7736.98
4528.57,7741.81
4481.44,7756.1
4438.01,7779.32
4399.95,7810.56
4368.7,7848.62
4345.49,7892.06
4331.19,7939.18
4326.37,7988.19
3938.6,7988.19
3938.6,7370.54
4010.85,7374.1
4120.94,7357.79
4225.72,7320.32
4275.02,7293.97
4303.21,7197.91
3983.09,6877.8
3977.52,6883.37
3938.6,6844.45
3938.6,6807.09
4053.8,6807.09
4373.92,7127.2
4469.97,7099.02
4517.57,6998.43
4544.62,6890.48
4550.1,6779.33
4533.79,6669.24
4496.32,6564.45
4469.97,6515.15
4373.92,6486.97
4053.8,6807.09
3938.6,6807.09
3938.6,6769.73
3977.52,6730.81
3983.09,6736.38
4303.21,6416.26
4275.02,6320.21
4174.43,6272.61
4107.89,6255.93
4147.88,6247.97
4250.7,6205.39
4343.23,6143.56
4421.92,6064.87
4483.75,5972.33
4526.34,5869.52
4548.05,5760.37
4548.05,5649.08
4526.34,5539.93
4483.75,5437.12
4446.06,5380.71
5006.71,5380.71
Z" /> 
</g>
</g>
<g style="fill:#840000; fill-opacity:1.0; 
stroke:#840000; stroke-width:100; stroke-opacity:1; 
stroke-linecap:round; stroke-linejoin:round;">
<g >
<path style="fill:#840000; fill-opacity:1.0; 
stroke:#840000; stroke-width:100; stroke-opacity:1; 
stroke-linecap:round; stroke-linejoin:round;fill-rule:evenodd;"
d="M 2482.43,5437.12
2439.84,5539.93
2418.13,5649.08
2418.13,5760.37
2439.84,5869.52
2482.43,5972.33
2544.26,6064.87
2622.95,6143.56
2715.48,6205.39
2803.21,6241.72
2668.13,6240.92
2619.12,6245.74
2571.99,6260.04
2528.56,6283.25
2490.5,6314.49
2459.26,6352.56
2436.04,6395.99
2421.75,6443.12
2416.92,6492.13
2418.13,6694.59
2480.63,6757.09
2933.09,6757.09
2933.09,6749.21
3033.09,6749.21
3033.09,6757.09
3040.96,6757.09
3040.96,6857.09
3033.09,6857.09
3033.09,7309.55
3095.59,7372.05
3248.05,7372.96
3248.05,8747.58
3185.49,8717.79
3127.53,8700.21
3037.03,8747.97
3037.03,9217.72
3044.9,9217.72
3044.9,9317.72
3037.03,9317.72
3037.03,9325.59
2937.03,9325.59
2937.03,9317.72
2467.02,9317.72
2419.51,9408.23
2457.83,9516.24
2514.52,9611.42
1983.09,9611.42
1983.09,9127.21
2419.51,9127.21
2467.02,9217.72
2937.03,9217.72
2937.03,8747.97
2846.52,8700.21
2788.56,8717.79
2685.09,8767.07
2593.22,8835.6
2516.48,8920.73
2457.83,9019.19
2419.51,9127.21
1983.09,9127.21
1983.09,8828.88
2004.45,8828.74
2066.95,8766.24
2066.95,8333.46
2166.95,8333.46
2166.95,8766.24
2229.45,8828.74
2412.22,8829.95
2461.23,8825.12
2508.36,8810.83
2551.79,8787.61
2589.86,8756.37
2621.1,8718.31
2644.31,8674.87
2658.61,8627.75
2663.43,8578.74
2662.22,8395.96
2599.72,8333.46
2166.95,8333.46
2066.95,8333.46
2059.07,8333.46
2059.07,8233.46
2066.95,8233.46
2066.95,7800.69
2166.95,7800.69
2166.95,8233.46
2599.72,8233.46
2662.22,8170.96
2663.43,7988.19
2658.61,7939.18
2644.31,7892.06
2621.1,7848.62
2589.86,7810.56
2551.79,7779.32
2508.36,7756.1
2461.23,7741.81
2412.22,7736.98
2229.45,7738.19
2166.95,7800.69
2066.95,7800.69
2004.45,7738.19
1983.09,7738.05
1983.09,7122.05
2416.92,7122.05
2421.75,7171.06
2436.04,7218.18
2459.26,7261.61
2490.5,7299.68
2528.56,7330.92
2571.99,7354.14
2619.12,7368.43
2668.13,7373.26
2870.59,7372.05
2933.09,7309.55
2933.09,6857.09
2480.63,6857.09
2418.13,6919.59
2416.92,7122.05
1983.09,7122.05
1983.09,5380.71
2520.12,5380.71
Z" /> 
</g>
</g>
</g>
<g style="fill:#FFFFFF; fill-opacity:1.0; 
stroke:#FFFFFF; stroke-width:100; stroke-opacity:1; 
stroke-linecap:round; stroke-linejoin:round;">
</g>
<g style="fill:#FFFFFF; fill-opacity:1.0; 
stroke:#FFFFFF; stroke-width:0; stroke-opacity:1; 
stroke-linecap:round; stroke-linejoin:round;">
<circle cx="2983.09" cy="6807.09" r="157.48" /> 
</g>
<g style="fill:#FFFFFF; fill-opacity:1.0; 
stroke:#FFFFFF; stroke-width:39.3701; stroke-opacity:1; 
stroke-linecap:round; stroke-linejoin:round;">
</g>
<g style="fill:#FFFFFF; fill-opacity:1.0; 
stroke:#FFFFFF; stroke-width:0; stroke-opacity:1; 
stroke-linecap:round; stroke-linejoin:round;">
<circle cx="3983.09" cy="6807.09" r="157.48" /> 
</g>
<g style="fill:#FFFFFF; fill-opacity:1.0; 
stroke:#FFFFFF; stroke-width:39.3701; stroke-opacity:1; 
stroke-linecap:round; stroke-linejoin:round;">
</g>
<g style="fill:#FFFFFF; fill-opacity:1.0; 
stroke:#FFFFFF; stroke-width:0; stroke-opacity:1; 
stroke-linecap:round; stroke-linejoin:round;">
<circle cx="3983.09" cy="5704.72" r="157.48" /> 
</g>
<g style="fill:#FFFFFF; fill-opacity:1.0; 
stroke:#FFFFFF; stroke-width:39.3701; stroke-opacity:1; 
stroke-linecap:round; stroke-linejoin:round;">
</g>
<g style="fill:#FFFFFF; fill-opacity:1.0; 
stroke:#FFFFFF; stroke-width:0; stroke-opacity:1; 
stroke-linecap:round; stroke-linejoin:round;">
<circle cx="2983.09" cy="5704.72" r="157.48" /> 
</g>
<g style="fill:#FFFFFF; fill-opacity:1.0; 
stroke:#FFFFFF; stroke-width:39.3701; stroke-opacity:1; 
stroke-linecap:round; stroke-linejoin:round;">
</g>
<g style="fill:#FFFFFF; fill-opacity:1.0; 
stroke:#FFFFFF; stroke-width:0; stroke-opacity:1; 
stroke-linecap:round; stroke-linejoin:round;">
<circle cx="2987.03" cy="10267.7" r="196.85" /> 
</g>
<g style="fill:#FFFFFF; fill-opacity:1.0; 
stroke:#FFFFFF; stroke-width:39.3701; stroke-opacity:1; 
stroke-linecap:round; stroke-linejoin:round;">
</g>
<g style="fill:#FFFFFF; fill-opacity:1.0; 
stroke:#FFFFFF; stroke-width:0; stroke-opacity:1; 
stroke-linecap:round; stroke-linejoin:round;">
<circle cx="2987.03" cy="9267.72" r="196.85" /> 
</g>
<g style="fill:#FFFFFF; fill-opacity:1.0; 
stroke:#FFFFFF; stroke-width:39.3701; stroke-opacity:1; 
stroke-linecap:round; stroke-linejoin:round;">
</g>
<g style="fill:#FFFFFF; fill-opacity:1.0; 
stroke:#FFFFFF; stroke-width:0; stroke-opacity:1; 
stroke-linecap:round; stroke-linejoin:round;">
<circle cx="3987.03" cy="10267.7" r="196.85" /> 
</g>
<g style="fill:#FFFFFF; fill-opacity:1.0; 
stroke:#FFFFFF; stroke-width:39.3701; stroke-opacity:1; 
stroke-linecap:round; stroke-linejoin:round;">
</g>
<g style="fill:#FFFFFF; fill-opacity:1.0; 
stroke:#FFFFFF; stroke-width:0; stroke-opacity:1; 
stroke-linecap:round; stroke-linejoin:round;">
<circle cx="3987.03" cy="9267.72" r="196.85" /> 
</g>
<g style="fill:#FFFFFF; fill-opacity:1.0; 
stroke:#FFFFFF; stroke-width:39.3701; stroke-opacity:1; 
stroke-linecap:round; stroke-linejoin:round;">
</g>
<g style="fill:#FFFFFF; fill-opacity:1.0; 
stroke:#FFFFFF; stroke-width:0; stroke-opacity:1; 
stroke-linecap:round; stroke-linejoin:round;">
<circle cx="3494.9" cy="1787.4" r="629.921" /> 
</g>
<g style="fill:#FFFFFF; fill-opacity:1.0; 
stroke:#FFFFFF; stroke-width:39.3701; stroke-opacity:1; 
stroke-linecap:round; stroke-linejoin:round;">
</g>
<g style="fill:#000000; fill-opacity:1.0; 
stroke:#000000; stroke-width:39.3701; stroke-opacity:1; 
stroke-linecap:round; stroke-linejoin:round;">
</g>
<g style="fill:#008484; fill-opacity:1.0; 
stroke:#008484; stroke-width:39.3701; stroke-opacity:1; 
stroke-linecap:round; stroke-linejoin:round;">
</g>
<g style="fill:#008484; fill-opacity:0.0; 
stroke:#008484; stroke-width:39.3701; stroke-opacity:1; 
stroke-linecap:round; stroke-linejoin:round;">
</g>
<g style="fill:#008484; fill-opacity:0.0; 
stroke:#008484; stroke-width:60.2362; stroke-opacity:1; 
stroke-linecap:round; stroke-linejoin:round;">
<text x="4676" y="3519.69"
textLength="1006.66" font-size="419.947" lengthAdjust="spacingAndGlyphs"
text-anchor="middle" opacity="0">Coll</text>
<path d="M4466 3474
L4451 3489
L4406 3504
L4376 3504
L4331 3489
L4301 3459
L4286 3429
L4271 3369
L4271 3324
L4286 3264
L4301 3234
L4331 3204
L4376 3189
L4406 3189
L4451 3204
L4466 3219
" />
<path d="M4646 3504
L4616 3489
L4601 3474
L4586 3444
L4586 3354
L4601 3324
L4616 3309
L4646 3294
L4691 3294
L4720 3309
L4735 3324
L4750 3354
L4750 3444
L4735 3474
L4720 3489
L4691 3504
L4646 3504
" />
<path d="M4930 3504
L4900 3489
L4885 3459
L4885 3189
" />
<path d="M5095 3504
L5065 3489
L5050 3459
L5050 3189
" />
<text x="3888.6" y="8440.95"
textLength="1143.17" font-size="419.947" lengthAdjust="spacingAndGlyphs"
text-anchor="middle" opacity="0">Cath</text>
<path d="M3611 8395
L3596 8410
L3551 8425
L3521 8425
L3476 8410
L3446 8380
L3431 8350
L3416 8290
L3416 8245
L3431 8185
L3446 8155
L3476 8125
L3521 8110
L3551 8110
L3596 8125
L3611 8140
" />
<path d="M3881 8425
L3881 8260
L3866 8230
L3836 8215
L3776 8215
L3746 8230
" />
<path d="M3881 8410
L3851 8425
L3776 8425
L3746 8410
L3731 8380
L3731 8350
L3746 8320
L3776 8305
L3851 8305
L3881 8290
" />
<path d="M3986 8215
L4106 8215
" />
<path d="M4031 8110
L4031 8380
L4046 8410
L4076 8425
L4106 8425
" />
<path d="M4211 8425
L4211 8110
" />
<path d="M4346 8425
L4346 8260
L4331 8230
L4301 8215
L4256 8215
L4226 8230
L4211 8245
" />
</g>
<g style="fill:#008484; fill-opacity:0.0; 
stroke:#008484; stroke-width:59.0551; stroke-opacity:1; 
stroke-linecap:round; stroke-linejoin:round;">
<text x="2313.8" y="3559.06"
textLength="959.447" font-size="524.934" lengthAdjust="spacingAndGlyphs"
text-anchor="middle" opacity="0">Em</text>
<path d="M1966 3334
L2098 3334
" />
<path d="M2154 3540
L1966 3540
L1966 3146
L2154 3146
" />
<path d="M2323 3540
L2323 3277
" />
<path d="M2323 3315
L2341 3296
L2379 3277
L2435 3277
L2473 3296
L2491 3334
L2491 3540
" />
<path d="M2491 3334
L2510 3296
L2548 3277
L2604 3277
L2641 3296
L2660 3334
L2660 3540
" />
<text x="2904.35" y="8480.32"
textLength="770.435" font-size="524.934" lengthAdjust="spacingAndGlyphs"
text-anchor="middle" opacity="0">An</text>
<path d="M2632 8349
L2819 8349
" />
<path d="M2595 8461
L2726 8067
L2857 8461
" />
<path d="M2988 8199
L2988 8461
" />
<path d="M2988 8236
L3007 8217
L3044 8199
L3101 8199
L3138 8217
L3157 8255
L3157 8461
" />
<text x="2116.95" y="9464.57"
textLength="770.435" font-size="524.934" lengthAdjust="spacingAndGlyphs"
text-anchor="middle" opacity="0">An</text>
<path d="M1845 9333
L2032 9333
" />
<path d="M1807 9445
L1938 9052
L2070 9445
" />
<path d="M2201 9183
L2201 9445
" />
<path d="M2201 9220
L2220 9202
L2257 9183
L2313 9183
L2351 9202
L2370 9239
L2370 9445
" />
</g>
<g style="fill:#008484; fill-opacity:0.0; 
stroke:#008484; stroke-width:60.2362; stroke-opacity:1; 
stroke-linecap:round; stroke-linejoin:round;">
<g transform="rotate(-15 4676 10842.5)">
<text x="4676" y="11000"
textLength="1006.66" font-size="419.947" lengthAdjust="spacingAndGlyphs"
text-anchor="middle" opacity="0">Coll</text>
</g>
<path d="M4502 11005
L4491 11023
L4452 11050
L4423 11057
L4375 11054
L4339 11033
L4316 11008
L4286 10954
L4275 10911
L4274 10849
L4280 10816
L4302 10779
L4341 10753
L4370 10745
L4417 10748
L4436 10759
" />
<path d="M4683 10987
L4651 10981
L4632 10970
L4610 10945
L4587 10858
L4593 10825
L4604 10807
L4629 10785
L4673 10773
L4705 10780
L4724 10790
L4746 10815
L4769 10902
L4763 10935
L4752 10954
L4727 10976
L4683 10987
" />
<path d="M4959 10914
L4926 10907
L4904 10882
L4834 10621
" />
<path d="M5118 10871
L5085 10864
L5063 10839
L4993 10578
" />
<g transform="rotate(-15 4676 9661.42)">
<text x="4676" y="9818.9"
textLength="1143.17" font-size="419.947" lengthAdjust="spacingAndGlyphs"
text-anchor="middle" opacity="0">Cath</text>
</g>
<path d="M4437 9841
L4426 9860
L4386 9886
L4357 9894
L4310 9891
L4273 9870
L4251 9845
L4221 9790
L4209 9747
L4208 9685
L4215 9652
L4236 9616
L4276 9589
L4305 9582
L4352 9584
L4371 9595
" />
<path d="M4705 9800
L4662 9641
L4640 9616
L4607 9609
L4549 9625
L4524 9647
" />
<path d="M4701 9786
L4676 9808
L4604 9828
L4571 9821
L4549 9796
L4541 9767
L4548 9734
L4573 9712
L4645 9692
L4670 9670
" />
<path d="M4752 9570
L4868 9539
" />
<path d="M4768 9457
L4838 9718
L4861 9743
L4893 9750
L4922 9742
" />
<path d="M5024 9715
L4942 9411
" />
<path d="M5154 9680
L5112 9521
L5089 9496
L5056 9489
L5013 9501
L4988 9523
L4977 9541
" />
</g>
<g style="fill:#008484; fill-opacity:0.0; 
stroke:#008484; stroke-width:59.0551; stroke-opacity:1; 
stroke-linecap:round; stroke-linejoin:round;">
<text x="2116.95" y="10842.5"
textLength="959.447" font-size="524.934" lengthAdjust="spacingAndGlyphs"
text-anchor="middle" opacity="0">Em</text>
<path d="M1770 10617
L1901 10617
" />
<path d="M1957 10823
L1770 10823
L1770 10430
L1957 10430
" />
<path d="M2126 10823
L2126 10561
" />
<path d="M2126 10598
L2145 10580
L2182 10561
L2238 10561
L2276 10580
L2295 10617
L2295 10823
" />
<path d="M2295 10617
L2313 10580
L2351 10561
L2407 10561
L2445 10580
L2463 10617
L2463 10823
" />
</g>
<g style="fill:#008484; fill-opacity:0.0; 
stroke:#008484; stroke-width:47.2441; stroke-opacity:1; 
stroke-linecap:round; stroke-linejoin:round;">
<path d="M4498 7909
L5246 7909
" />
<path d="M4498 8657
L4498 7909
" />
<path d="M5246 8657
L4498 8657
" />
<path d="M5246 7909
L5246 8657
" />
<path d="M1742 7909
L2490 7909
" />
<path d="M2490 7909
L2490 8657
" />
<path d="M2490 8657
L1742 8657
" />
<path d="M1742 8657
L1742 7909
" />
<path d="M4912 4838
L2077 4838
" />
<path d="M4912 7673
L4912 4838
" />
<path d="M2983 7673
L4912 7673
" />
<path d="M2077 4838
L2077 6807
" />
</g>
<g style="fill:#008484; fill-opacity:0.0; 
stroke:#008484; stroke-width:39.3701; stroke-opacity:1; 
stroke-linecap:round; stroke-linejoin:round;">
<path d="M4754 6334
L4872 6334
" />
<path d="M4754 6177
L4754 6334
" />
<path d="M4872 6177
L4754 6177
" />
<path d="M2235 6177
L2116 6177
" />
<path d="M2235 6334
L2235 6177
" />
<path d="M2116 6334
L2235 6334
" />
</g>
<g style="fill:#008484; fill-opacity:0.0; 
stroke:#008484; stroke-width:47.2441; stroke-opacity:1; 
stroke-linecap:round; stroke-linejoin:round;">
<path d="M4510 10834
L2463 10834
" />
<path d="M2463 10834
L2463 11881
" />
<path d="M2463 11881
L4510 11881
" />
<path d="M4510 11881
L4510 10834
" />
<path d="M4136 11881
L4136 14244
" />
<path d="M4136 14244
L3837 14244
" />
<path d="M3837 14244
L3837 11881
" />
<path d="M4113 11881
L4113 14244
" />
<path d="M4065 11881
L4065 14244
" />
<path d="M4018 11881
L4018 14244
" />
<path d="M3971 11881
L3971 14244
" />
<path d="M3924 11881
L3924 14244
" />
<path d="M3876 11881
L3876 14244
" />
<path d="M4136 10678
L4136 10834
" />
<path d="M3837 10678
L3837 10834
" />
<path d="M4136 9704
L4136 9857
" />
<path d="M3837 9704
L3837 9857
" />
<path d="M3487 10834
L3487 11881
" />
<path d="M3136 11881
L3136 14244
" />
<path d="M3136 14244
L2837 14244
" />
<path d="M2837 14244
L2837 11881
" />
<path d="M3136 10678
L3136 10834
" />
<path d="M2837 10678
L2837 10834
" />
<path d="M3136 9678
L3136 9857
" />
<path d="M2837 9678
L2837 9857
" />
<path d="M3987 8767
L4487 8767
" />
<path d="M4487 8767
L4487 9267
" />
<circle cx="4676" cy="4149.61" r="374.016" /> 
<circle cx="2313.8" cy="4149.61" r="374.016" /> 
</g>
<g style="fill:#008484; fill-opacity:0.0; 
stroke:#008484; stroke-width:60.2362; stroke-opacity:1; 
stroke-linecap:round; stroke-linejoin:round;">
<g transform="rotate(-180 3475.22 5015.75)">
<text x="3475.22" y="5173.23"
textLength="1591.58" font-size="419.947" lengthAdjust="spacingAndGlyphs"
text-anchor="middle" opacity="0">CNY70</text>
</g>
<path d="M3977 4903
L3992 4888
L4037 4873
L4067 4873
L4112 4888
L4142 4918
L4157 4948
L4172 5008
L4172 5053
L4157 5113
L4142 5143
L4112 5173
L4067 5188
L4037 5188
L3992 5173
L3977 5158
" />
<path d="M3842 4873
L3842 5188
L3662 4873
L3662 5188
" />
<path d="M3452 5023
L3452 4873
" />
<path d="M3557 5188
L3452 5023
L3347 5188
" />
<path d="M3272 5188
L3062 5188
L3197 4873
" />
<path d="M2882 5188
L2852 5188
L2822 5173
L2807 5158
L2792 5128
L2777 5068
L2777 4993
L2792 4933
L2807 4903
L2822 4888
L2852 4873
L2882 4873
L2912 4888
L2927 4903
L2942 4933
L2957 4993
L2957 5068
L2942 5128
L2927 5158
L2912 5173
L2882 5188
" />
<g >
</g>
</g>
<g style="fill:#000000; fill-opacity:0.0; 
stroke:#000000; stroke-width:60.2362; stroke-opacity:1; 
stroke-linecap:round; stroke-linejoin:round;">
<g >
</g>
<g >
</g>
<g >
</g>
<g >
</g>
<g >
</g>
<g >
</g>
<g >
</g>
<g >
</g>
<g >
</g>
<g >
</g>
</g>
<g style="fill:#000000; fill-opacity:0.0; 
stroke:#000000; stroke-width:60.2362; stroke-opacity:1; 
stroke-linecap:round; stroke-linejoin:round;">
</g>
<g style="fill:#848484; fill-opacity:0.0; 
stroke:#848484; stroke-width:60.2362; stroke-opacity:1; 
stroke-linecap:round; stroke-linejoin:round;">
</g>
<g style="fill:#848484; fill-opacity:0.0; 
stroke:#848484; stroke-width:19.685; stroke-opacity:1; 
stroke-linecap:round; stroke-linejoin:round;">
<path d="M2018 7732
L2018 4779
" />
<path d="M2018 7732
L4971 7732
" />
<path d="M4971 4779
L2018 4779
" />
<path d="M4971 4779
L4971 7732
" />
<path d="M4695 8559
L2274 8559
" />
<path d="M2274 8559
L2274 14425
" />
<path d="M2274 14425
L4695 14425
" />
<path d="M4695 14425
L4695 8559
" />
<circle cx="3494.9" cy="1787.4" r="1358.27" /> 
<circle cx="4676" cy="4149.61" r="492.126" /> 
<circle cx="2313.8" cy="4149.61" r="492.126" /> 
<g >
</g>
<g >
</g>
<g >
</g>
<g >
</g>
<g >
</g>
<g >
</g>
<g >
</g>
<g >
</g>
</g>
<g style="fill:#000000; fill-opacity:0.0; 
stroke:#000000; stroke-width:19.685; stroke-opacity:1; 
stroke-linecap:round; stroke-linejoin:round;">
<g >
</g>
<g >
</g>
<g >
</g>
<g >
</g>
<g >
</g>
<g >
</g>
<g >
</g>
<g >
</g>
</g>
<g style="fill:#000000; fill-opacity:0.0; 
stroke:#000000; stroke-width:19.685; stroke-opacity:1; 
stroke-linecap:round; stroke-linejoin:round;">
</g>
<g style="fill:#C2C200; fill-opacity:0.0; 
stroke:#C2C200; stroke-width:19.685; stroke-opacity:1; 
stroke-linecap:round; stroke-linejoin:round;">
<path d="M1723 11629
L5266 11629
" />
<path d="M1723 11629
L1723 9
" />
<path d="M5266 9
L5266 11629
" />
<path d="M1723 9
L5266 9
" />
<g >
</g>
<g >
</g>
<g >
</g>
<g >
</g>
<g >
</g>
<g >
</g>
<g >
</g>
<g >
</g>
</g> 
</svg>
