<?xml version="1.0" standalone="no"?>
 <!DOCTYPE svg PUBLIC "-//W3C//DTD SVG 1.1//EN" 
 "http://www.w3.org/Graphics/SVG/1.1/DTD/svg11.dtd"> 
<svg
  xmlns:svg="http://www.w3.org/2000/svg"
  xmlns="http://www.w3.org/2000/svg"
  xmlns:xlink="http://www.w3.org/1999/xlink"
  version="1.1"
  width="1.511300cm" height="3.370580cm" viewBox="0 0 5950 13270">
<title>SVG Picture created as sensorboard-1x-brd.svg date 2020/12/14 22:41:41 </title>
  <desc>Picture generated by PCBNEW </desc>
<g style="fill:#000000; fill-opacity:1;stroke:#000000; stroke-opacity:1;
stroke-linecap:round; stroke-linejoin:round;"
 transform="translate(0 0) scale(1 1)">
</g>
<g style="fill:#000000; fill-opacity:0.0; 
stroke:#000000; stroke-width:-0.000393701; stroke-opacity:1; 
stroke-linecap:round; stroke-linejoin:round;">
</g>
<g style="fill:#C2C200; fill-opacity:0.0; 
stroke:#C2C200; stroke-width:-0.000393701; stroke-opacity:1; 
stroke-linecap:round; stroke-linejoin:round;">
</g>
<g style="fill:#C2C200; fill-opacity:0.0; 
stroke:#C2C200; stroke-width:19.685; stroke-opacity:1; 
stroke-linecap:round; stroke-linejoin:round;">
<circle cx="4579.36" cy="6807.09" r="393.701" /> 
<circle cx="1379.36" cy="6807.09" r="393.701" /> 
<g >
</g>
<g >
</g>
<g >
</g>
<g >
</g>
<g >
</g>
<g >
</g>
<g >
</g>
<g >
</g>
</g>
<g style="fill:#000000; fill-opacity:0.0; 
stroke:#000000; stroke-width:19.685; stroke-opacity:1; 
stroke-linecap:round; stroke-linejoin:round;">
<g >
</g>
<g >
</g>
<g >
</g>
<g >
</g>
<g >
</g>
<g >
</g>
<g >
</g>
<g >
</g>
<g >
</g>
<g >
</g>
</g>
<g style="fill:#000000; fill-opacity:0.0; 
stroke:#000000; stroke-width:19.685; stroke-opacity:1; 
stroke-linecap:round; stroke-linejoin:round;">
</g>
<g style="fill:#840084; fill-opacity:0.0; 
stroke:#840084; stroke-width:19.685; stroke-opacity:1; 
stroke-linecap:round; stroke-linejoin:round;">
</g>
<g style="fill:#840084; fill-opacity:0.0; 
stroke:#840084; stroke-width:59.0551; stroke-opacity:1; 
stroke-linecap:round; stroke-linejoin:round;">
<g transform="rotate(-180 1369.12 10842.5)">
<text x="1369.12" y="11433.1"
transform="scale(-1 1) translate(-2738.244882 0)"
textLength="1385.55" font-size="1574.8" lengthAdjust="spacingAndGlyphs"
text-anchor="middle" opacity="0">+</text>
</g>
<path d="M919 10758
L1819 10758
" />
<path d="M1369 10308
L1369 11208
" />
<g transform="rotate(-180 4565.58 10842.5)">
<text x="4565.58" y="11433.1"
transform="scale(-1 1) translate(-9131.158268 0)"
textLength="1385.55" font-size="1574.8" lengthAdjust="spacingAndGlyphs"
text-anchor="middle" opacity="0">-</text>
</g>
<path d="M4115 10758
L5015 10758
" />
</g>
<g style="fill:#840084; fill-opacity:0.0; 
stroke:#840084; stroke-width:47.2441; stroke-opacity:1; 
stroke-linecap:round; stroke-linejoin:round;">
<circle cx="4579.36" cy="6807.09" r="275.591" /> 
<circle cx="1379.36" cy="6807.09" r="275.591" /> 
</g>
<g style="fill:#840084; fill-opacity:0.0; 
stroke:#840084; stroke-width:59.0551; stroke-opacity:1; 
stroke-linecap:round; stroke-linejoin:round;">
<g transform="rotate(-90 4579.36 8185.04)">
<text x="4579.36" y="8381.89"
transform="scale(-1 1) translate(-9158.717323 0)"
textLength="1460.54" font-size="524.934" lengthAdjust="spacingAndGlyphs"
text-anchor="middle" opacity="0">Coll1</text>
</g>
<path d="M4719 7735
L4738 7716
L4757 7660
L4757 7622
L4738 7566
L4701 7528
L4663 7510
L4588 7491
L4532 7491
L4457 7510
L4420 7528
L4382 7566
L4363 7622
L4363 7660
L4382 7716
L4401 7735
" />
<path d="M4757 7960
L4738 7922
L4719 7903
L4682 7885
L4569 7885
L4532 7903
L4513 7922
L4494 7960
L4494 8016
L4513 8053
L4532 8072
L4569 8091
L4682 8091
L4719 8072
L4738 8053
L4757 8016
L4757 7960
" />
<path d="M4757 8316
L4738 8278
L4701 8260
L4363 8260
" />
<path d="M4757 8522
L4738 8485
L4701 8466
L4363 8466
" />
<path d="M4757 8878
L4757 8653
" />
<path d="M4757 8766
L4363 8766
L4420 8728
L4457 8691
L4476 8653
" />
<g transform="rotate(-90 1379.36 8185.04)">
<text x="1379.36" y="8381.89"
transform="scale(-1 1) translate(-2758.717323 0)"
textLength="1591.77" font-size="524.934" lengthAdjust="spacingAndGlyphs"
text-anchor="middle" opacity="0">Emit1</text>
</g>
<path d="M1351 7444
L1351 7575
" />
<path d="M1557 7631
L1557 7444
L1163 7444
L1163 7631
" />
<path d="M1557 7800
L1294 7800
" />
<path d="M1332 7800
L1313 7819
L1294 7856
L1294 7913
L1313 7950
L1351 7969
L1557 7969
" />
<path d="M1351 7969
L1313 7988
L1294 8025
L1294 8081
L1313 8119
L1351 8138
L1557 8138
" />
<path d="M1557 8325
L1294 8325
" />
<path d="M1163 8325
L1182 8306
L1201 8325
L1182 8344
L1163 8325
L1201 8325
" />
<path d="M1294 8456
L1294 8606
" />
<path d="M1163 8513
L1501 8513
L1538 8531
L1557 8569
L1557 8606
" />
<path d="M1557 8944
L1557 8719
" />
<path d="M1557 8831
L1163 8831
L1220 8794
L1257 8756
L1276 8719
" />
<g >
</g>
</g>
<g style="fill:#000000; fill-opacity:0.0; 
stroke:#000000; stroke-width:59.0551; stroke-opacity:1; 
stroke-linecap:round; stroke-linejoin:round;">
<g >
</g>
<g style="fill:#848400; fill-opacity:0.0; 
stroke:#848400; stroke-width:59.0551; stroke-opacity:1; 
stroke-linecap:round; stroke-linejoin:round;">
</g>
<g style="fill:#848400; fill-opacity:1.0; 
stroke:#848400; stroke-width:0; stroke-opacity:1; 
stroke-linecap:round; stroke-linejoin:round;">
<circle cx="2470.7" cy="4290.55" r="314.961" /> 
</g>
<g style="fill:#848400; fill-opacity:1.0; 
stroke:#848400; stroke-width:39.3701; stroke-opacity:1; 
stroke-linecap:round; stroke-linejoin:round;">
</g>
<g style="fill:#848400; fill-opacity:1.0; 
stroke:#848400; stroke-width:0; stroke-opacity:1; 
stroke-linecap:round; stroke-linejoin:round;">
<circle cx="3470.7" cy="4290.55" r="314.961" /> 
</g>
<g style="fill:#848400; fill-opacity:1.0; 
stroke:#848400; stroke-width:39.3701; stroke-opacity:1; 
stroke-linecap:round; stroke-linejoin:round;">
</g>
<g style="fill:#848400; fill-opacity:1.0; 
stroke:#848400; stroke-width:0; stroke-opacity:1; 
stroke-linecap:round; stroke-linejoin:round;">
<circle cx="3470.7" cy="5392.91" r="314.961" /> 
</g>
<g style="fill:#848400; fill-opacity:1.0; 
stroke:#848400; stroke-width:39.3701; stroke-opacity:1; 
stroke-linecap:round; stroke-linejoin:round;">
</g>
<g style="fill:#848400; fill-opacity:1.0; 
stroke:#848400; stroke-width:0; stroke-opacity:1; 
stroke-linecap:round; stroke-linejoin:round;">
<path style="fill:#848400; fill-opacity:1.0; 
stroke:#848400; stroke-width:0; stroke-opacity:1; 
stroke-linecap:round; stroke-linejoin:round;fill-rule:evenodd;"
d="M 2697.02,5078.43
2706.56,5079.84
2715.92,5082.18
2725,5085.43
2733.71,5089.56
2741.98,5094.51
2749.73,5100.26
2756.88,5106.74
2763.35,5113.88
2769.1,5121.63
2774.05,5129.9
2778.18,5138.62
2781.43,5147.7
2783.77,5157.05
2785.18,5166.59
2785.66,5176.22
2785.66,5609.61
2785.18,5619.24
2783.77,5628.78
2781.43,5638.13
2778.18,5647.21
2774.05,5655.93
2769.1,5664.2
2763.35,5671.95
2756.88,5679.09
2749.73,5685.57
2741.98,5691.31
2733.71,5696.27
2725,5700.39
2715.92,5703.64
2706.56,5705.99
2697.02,5707.4
2687.39,5707.87
2254,5707.87
2244.37,5707.4
2234.83,5705.99
2225.48,5703.64
2216.4,5700.39
2207.68,5696.27
2199.41,5691.31
2191.66,5685.57
2184.52,5679.09
2178.04,5671.95
2172.3,5664.2
2167.34,5655.93
2163.22,5647.21
2159.97,5638.13
2157.62,5628.78
2156.21,5619.24
2155.74,5609.61
2155.74,5176.22
2156.21,5166.59
2157.62,5157.05
2159.97,5147.7
2163.22,5138.62
2167.34,5129.9
2172.3,5121.63
2178.04,5113.88
2184.52,5106.74
2191.66,5100.26
2199.41,5094.51
2207.68,5089.56
2216.4,5085.43
2225.48,5082.18
2234.83,5079.84
2244.37,5078.43
2254,5077.95
2687.39,5077.95
Z" /> 
</g>
<g >
</g>
<g style="fill:#848400; fill-opacity:1.0; 
stroke:#848400; stroke-width:0; stroke-opacity:1; 
stroke-linecap:round; stroke-linejoin:round;">
<circle cx="2484.48" cy="8692.91" r="334.646" /> 
<circle cx="2484.48" cy="7692.91" r="334.646" /> 
<circle cx="3484.48" cy="8692.91" r="334.646" /> 
<path style="fill:#848400; fill-opacity:1.0; 
stroke:#848400; stroke-width:0; stroke-opacity:1; 
stroke-linecap:round; stroke-linejoin:round;fill-rule:evenodd;"
d="M 3149.83,7358.27
3819.12,7358.27
3819.12,8027.56
3149.83,8027.56
Z" /> 
</g>
<g >
</g>
<g >
</g>
<g >
</g>
<g >
</g>
<g style="fill:#008400; fill-opacity:1.0; 
stroke:#008400; stroke-width:0; stroke-opacity:1; 
stroke-linecap:round; stroke-linejoin:round;">
<circle cx="4579.36" cy="6807.09" r="196.85" /> 
</g>
<g style="fill:#008400; fill-opacity:1.0; 
stroke:#008400; stroke-width:39.3701; stroke-opacity:1; 
stroke-linecap:round; stroke-linejoin:round;">
</g>
<g >
</g>
<g style="fill:#008400; fill-opacity:1.0; 
stroke:#008400; stroke-width:39.3701; stroke-opacity:1; 
stroke-linecap:round; stroke-linejoin:round;">
</g>
<g style="fill:#008400; fill-opacity:1.0; 
stroke:#008400; stroke-width:0; stroke-opacity:1; 
stroke-linecap:round; stroke-linejoin:round;">
<circle cx="1379.36" cy="6807.09" r="196.85" /> 
</g>
<g style="fill:#008400; fill-opacity:1.0; 
stroke:#008400; stroke-width:39.3701; stroke-opacity:1; 
stroke-linecap:round; stroke-linejoin:round;">
</g>
<g >
</g>
<g >
</g>
<g >
</g>
<g style="fill:#008400; fill-opacity:1.0; 
stroke:#008400; stroke-width:39.3701; stroke-opacity:1; 
stroke-linecap:round; stroke-linejoin:round;">
<g >
</g>
<g style="fill:#008400; fill-opacity:1.0; 
stroke:#008400; stroke-width:100; stroke-opacity:1; 
stroke-linecap:round; stroke-linejoin:round;">
<path style="fill:#008400; fill-opacity:1.0; 
stroke:#008400; stroke-width:100; stroke-opacity:1; 
stroke-linecap:round; stroke-linejoin:round;fill-rule:evenodd;"
d="M 4869.52,6402.61
4820.77,6380.92
4734.91,6361.52
4646.92,6359.25
4560.17,6374.18
4478,6405.75
4457.53,6416.7
4443.7,6500.72
4679.36,6736.38
4684.93,6730.81
4755.64,6801.52
4750.07,6807.09
4755.64,6812.66
4684.93,6883.37
4679.36,6877.8
4443.7,7113.45
4457.53,7197.48
4537.95,7233.25
4623.81,7252.65
4711.8,7254.93
4798.55,7239.99
4869.52,7212.72
4869.52,10005.1
3337.63,10005.1
3337.63,9258.5
3343.97,9260.42
3434.48,9212.66
3434.48,8742.91
3534.48,8742.91
3534.48,9212.66
3624.98,9260.42
3682.94,9242.84
3786.41,9193.56
3878.28,9125.04
3955.02,9039.9
4013.67,8941.44
4051.99,8833.42
4004.48,8742.91
3534.48,8742.91
3434.48,8742.91
3426.6,8742.91
3426.6,8642.91
3434.48,8642.91
3434.48,8635.04
3534.48,8635.04
3534.48,8642.91
4004.48,8642.91
4051.99,8552.41
4013.67,8444.39
3955.02,8345.92
3885.41,8268.7
3915.26,8259.65
3958.69,8236.43
3996.75,8205.19
4028,8167.12
4051.21,8123.69
4065.51,8076.57
4070.33,8027.56
4070.33,7358.27
4065.51,7309.26
4051.21,7262.13
4028,7218.7
3996.75,7180.64
3958.69,7149.4
3915.26,7126.18
3868.13,7111.89
3819.12,7107.06
3337.63,7107.06
3337.63,6839.53
4231.52,6839.53
4246.45,6926.28
4278.03,7008.44
4288.97,7028.92
4372.99,7042.74
4608.65,6807.09
4372.99,6571.43
4288.97,6585.26
4253.19,6665.68
4233.8,6751.54
4231.52,6839.53
3337.63,6839.53
3337.63,5942.47
3415.05,5957.87
3526.34,5957.87
3635.49,5936.16
3738.31,5893.58
3830.84,5831.75
3909.53,5753.06
3971.36,5660.52
4013.95,5557.71
4035.66,5448.56
4035.66,5337.27
4013.95,5228.12
3971.36,5125.3
3909.53,5032.77
3830.84,4954.08
3738.31,4892.25
3635.49,4849.66
3599.76,4842.56
3608.54,4841.26
3713.33,4803.78
3762.63,4777.43
3790.81,4681.38
3470.7,4361.26
3465.13,4366.83
3394.42,4296.12
3399.99,4290.55
3541.41,4290.55
3861.52,4610.67
3957.58,4582.49
4005.17,4481.89
4032.23,4373.94
4037.71,4262.79
4021.4,4152.71
3983.93,4047.92
3957.58,3998.62
3861.52,3970.43
3541.41,4290.55
3399.99,4290.55
3394.42,4284.98
3465.13,4214.27
3470.7,4219.84
3790.81,3899.72
3762.63,3803.67
3662.04,3756.07
3554.09,3729.02
3442.94,3723.54
3337.63,3739.14
3337.63,3215.35
4869.52,3215.35
Z" /> 
</g>
</g>
<g style="fill:#008400; fill-opacity:1.0; 
stroke:#008400; stroke-width:100; stroke-opacity:1; 
stroke-linecap:round; stroke-linejoin:round;">
<g >
<path style="fill:#008400; fill-opacity:1.0; 
stroke:#008400; stroke-width:100; stroke-opacity:1; 
stroke-linecap:round; stroke-linejoin:round;fill-rule:evenodd;"
d="M 2647.08,3752.32
2554.09,3729.02
2442.94,3723.54
2332.85,3739.85
2228.06,3777.32
2178.76,3803.67
2150.58,3899.72
2470.7,4219.84
2476.27,4214.27
2546.98,4284.98
2541.41,4290.55
2546.98,4296.12
2476.27,4366.83
2470.7,4361.26
2150.58,4681.38
2178.76,4777.43
2279.36,4825.03
2286.2,4826.74
2254,4826.74
2185.82,4833.46
2120.27,4853.35
2059.85,4885.64
2006.89,4929.1
1963.42,4982.06
1931.13,5042.48
1911.24,5108.04
1904.53,5176.22
1904.53,5609.61
1911.24,5677.79
1931.13,5743.35
1963.42,5803.77
2006.89,5856.72
2059.85,5900.19
2120.27,5932.48
2185.82,5952.37
2254,5959.08
2647.08,5959.08
2647.08,7129.16
2542.06,7108.27
2426.89,7108.27
2313.94,7130.74
2207.54,7174.81
2111.79,7238.79
2030.35,7320.22
1966.37,7415.98
1922.3,7522.38
1899.83,7635.33
1899.83,7750.5
1922.3,7863.45
1966.37,7969.85
2030.35,8065.6
2111.79,8147.04
2181.09,8193.35
2090.67,8260.79
2013.93,8345.92
1955.28,8444.39
1916.96,8552.41
1964.47,8642.91
2434.48,8642.91
2434.48,8635.04
2534.48,8635.04
2534.48,8642.91
2542.35,8642.91
2542.35,8742.91
2534.48,8742.91
2534.48,9212.66
2624.98,9260.42
2647.08,9253.72
2647.08,10005.1
1089.89,10005.1
1089.81,8833.42
1916.96,8833.42
1955.28,8941.44
2013.93,9039.9
2090.67,9125.04
2182.54,9193.56
2286.01,9242.84
2343.97,9260.42
2434.48,9212.66
2434.48,8742.91
1964.47,8742.91
1916.96,8833.42
1089.81,8833.42
1089.69,7117.47
1093.7,7113.45
1107.53,7197.48
1187.95,7233.25
1273.81,7252.65
1361.8,7254.93
1448.55,7239.99
1530.71,7208.42
1551.19,7197.48
1565.01,7113.45
1329.36,6877.8
1323.79,6883.37
1253.08,6812.66
1258.65,6807.09
1400.07,6807.09
1635.72,7042.74
1719.75,7028.92
1755.52,6948.49
1774.92,6862.64
1777.2,6774.64
1762.26,6687.9
1730.69,6605.73
1719.75,6585.26
1635.72,6571.43
1400.07,6807.09
1258.65,6807.09
1253.08,6801.52
1323.79,6730.81
1329.36,6736.38
1565.01,6500.72
1551.19,6416.7
1470.77,6380.92
1384.91,6361.52
1296.92,6359.25
1210.17,6374.18
1128,6405.75
1107.53,6416.7
1093.7,6500.72
1089.65,6496.66
1089.5,4318.31
1903.68,4318.31
1919.99,4428.4
1957.47,4533.19
1983.82,4582.49
2079.87,4610.67
2399.99,4290.55
2079.87,3970.43
1983.82,3998.62
1936.22,4099.21
1909.16,4207.16
1903.68,4318.31
1089.5,4318.31
1089.42,3215.35
2647.08,3215.35
Z" /> 
</g>
</g>
</g>
<g style="fill:#FFFFFF; fill-opacity:1.0; 
stroke:#FFFFFF; stroke-width:100; stroke-opacity:1; 
stroke-linecap:round; stroke-linejoin:round;">
</g>
<g style="fill:#FFFFFF; fill-opacity:1.0; 
stroke:#FFFFFF; stroke-width:0; stroke-opacity:1; 
stroke-linecap:round; stroke-linejoin:round;">
<circle cx="2470.7" cy="4290.55" r="157.48" /> 
</g>
<g style="fill:#FFFFFF; fill-opacity:1.0; 
stroke:#FFFFFF; stroke-width:39.3701; stroke-opacity:1; 
stroke-linecap:round; stroke-linejoin:round;">
</g>
<g style="fill:#FFFFFF; fill-opacity:1.0; 
stroke:#FFFFFF; stroke-width:0; stroke-opacity:1; 
stroke-linecap:round; stroke-linejoin:round;">
<circle cx="3470.7" cy="4290.55" r="157.48" /> 
</g>
<g style="fill:#FFFFFF; fill-opacity:1.0; 
stroke:#FFFFFF; stroke-width:39.3701; stroke-opacity:1; 
stroke-linecap:round; stroke-linejoin:round;">
</g>
<g style="fill:#FFFFFF; fill-opacity:1.0; 
stroke:#FFFFFF; stroke-width:0; stroke-opacity:1; 
stroke-linecap:round; stroke-linejoin:round;">
<circle cx="3470.7" cy="5392.91" r="157.48" /> 
</g>
<g style="fill:#FFFFFF; fill-opacity:1.0; 
stroke:#FFFFFF; stroke-width:39.3701; stroke-opacity:1; 
stroke-linecap:round; stroke-linejoin:round;">
</g>
<g style="fill:#FFFFFF; fill-opacity:1.0; 
stroke:#FFFFFF; stroke-width:0; stroke-opacity:1; 
stroke-linecap:round; stroke-linejoin:round;">
<circle cx="2470.7" cy="5392.91" r="157.48" /> 
</g>
<g style="fill:#FFFFFF; fill-opacity:1.0; 
stroke:#FFFFFF; stroke-width:39.3701; stroke-opacity:1; 
stroke-linecap:round; stroke-linejoin:round;">
</g>
<g style="fill:#FFFFFF; fill-opacity:1.0; 
stroke:#FFFFFF; stroke-width:0; stroke-opacity:1; 
stroke-linecap:round; stroke-linejoin:round;">
<circle cx="2484.48" cy="8692.91" r="196.85" /> 
</g>
<g style="fill:#FFFFFF; fill-opacity:1.0; 
stroke:#FFFFFF; stroke-width:39.3701; stroke-opacity:1; 
stroke-linecap:round; stroke-linejoin:round;">
</g>
<g style="fill:#FFFFFF; fill-opacity:1.0; 
stroke:#FFFFFF; stroke-width:0; stroke-opacity:1; 
stroke-linecap:round; stroke-linejoin:round;">
<circle cx="2484.48" cy="7692.91" r="196.85" /> 
</g>
<g style="fill:#FFFFFF; fill-opacity:1.0; 
stroke:#FFFFFF; stroke-width:39.3701; stroke-opacity:1; 
stroke-linecap:round; stroke-linejoin:round;">
</g>
<g style="fill:#FFFFFF; fill-opacity:1.0; 
stroke:#FFFFFF; stroke-width:0; stroke-opacity:1; 
stroke-linecap:round; stroke-linejoin:round;">
<circle cx="3484.48" cy="8692.91" r="196.85" /> 
</g>
<g style="fill:#FFFFFF; fill-opacity:1.0; 
stroke:#FFFFFF; stroke-width:39.3701; stroke-opacity:1; 
stroke-linecap:round; stroke-linejoin:round;">
</g>
<g style="fill:#FFFFFF; fill-opacity:1.0; 
stroke:#FFFFFF; stroke-width:0; stroke-opacity:1; 
stroke-linecap:round; stroke-linejoin:round;">
<circle cx="3484.48" cy="7692.91" r="196.85" /> 
</g>
<g style="fill:#FFFFFF; fill-opacity:1.0; 
stroke:#FFFFFF; stroke-width:39.3701; stroke-opacity:1; 
stroke-linecap:round; stroke-linejoin:round;">
</g>
<g style="fill:#FFFFFF; fill-opacity:1.0; 
stroke:#FFFFFF; stroke-width:0; stroke-opacity:1; 
stroke-linecap:round; stroke-linejoin:round;">
<circle cx="2982.51" cy="1692.91" r="629.921" /> 
</g>
<g style="fill:#FFFFFF; fill-opacity:1.0; 
stroke:#FFFFFF; stroke-width:39.3701; stroke-opacity:1; 
stroke-linecap:round; stroke-linejoin:round;">
</g>
<g style="fill:#000000; fill-opacity:1.0; 
stroke:#000000; stroke-width:39.3701; stroke-opacity:1; 
stroke-linecap:round; stroke-linejoin:round;">
<g >
</g>
<g style="fill:#848400; fill-opacity:1.0; 
stroke:#848400; stroke-width:39.3701; stroke-opacity:1; 
stroke-linecap:round; stroke-linejoin:round;">
</g>
<g style="fill:#848400; fill-opacity:1.0; 
stroke:#848400; stroke-width:0; stroke-opacity:1; 
stroke-linecap:round; stroke-linejoin:round;">
<circle cx="2470.7" cy="4290.55" r="314.961" /> 
</g>
<g style="fill:#848400; fill-opacity:1.0; 
stroke:#848400; stroke-width:39.3701; stroke-opacity:1; 
stroke-linecap:round; stroke-linejoin:round;">
</g>
<g style="fill:#848400; fill-opacity:1.0; 
stroke:#848400; stroke-width:0; stroke-opacity:1; 
stroke-linecap:round; stroke-linejoin:round;">
<circle cx="3470.7" cy="4290.55" r="314.961" /> 
</g>
<g style="fill:#848400; fill-opacity:1.0; 
stroke:#848400; stroke-width:39.3701; stroke-opacity:1; 
stroke-linecap:round; stroke-linejoin:round;">
</g>
<g style="fill:#848400; fill-opacity:1.0; 
stroke:#848400; stroke-width:0; stroke-opacity:1; 
stroke-linecap:round; stroke-linejoin:round;">
<circle cx="3470.7" cy="5392.91" r="314.961" /> 
</g>
<g style="fill:#848400; fill-opacity:1.0; 
stroke:#848400; stroke-width:39.3701; stroke-opacity:1; 
stroke-linecap:round; stroke-linejoin:round;">
</g>
<g style="fill:#848400; fill-opacity:1.0; 
stroke:#848400; stroke-width:0; stroke-opacity:1; 
stroke-linecap:round; stroke-linejoin:round;">
<path style="fill:#848400; fill-opacity:1.0; 
stroke:#848400; stroke-width:0; stroke-opacity:1; 
stroke-linecap:round; stroke-linejoin:round;fill-rule:evenodd;"
d="M 2697.02,5078.43
2706.56,5079.84
2715.92,5082.18
2725,5085.43
2733.71,5089.56
2741.98,5094.51
2749.73,5100.26
2756.88,5106.74
2763.35,5113.88
2769.1,5121.63
2774.05,5129.9
2778.18,5138.62
2781.43,5147.7
2783.77,5157.05
2785.18,5166.59
2785.66,5176.22
2785.66,5609.61
2785.18,5619.24
2783.77,5628.78
2781.43,5638.13
2778.18,5647.21
2774.05,5655.93
2769.1,5664.2
2763.35,5671.95
2756.88,5679.09
2749.73,5685.57
2741.98,5691.31
2733.71,5696.27
2725,5700.39
2715.92,5703.64
2706.56,5705.99
2697.02,5707.4
2687.39,5707.87
2254,5707.87
2244.37,5707.4
2234.83,5705.99
2225.48,5703.64
2216.4,5700.39
2207.68,5696.27
2199.41,5691.31
2191.66,5685.57
2184.52,5679.09
2178.04,5671.95
2172.3,5664.2
2167.34,5655.93
2163.22,5647.21
2159.97,5638.13
2157.62,5628.78
2156.21,5619.24
2155.74,5609.61
2155.74,5176.22
2156.21,5166.59
2157.62,5157.05
2159.97,5147.7
2163.22,5138.62
2167.34,5129.9
2172.3,5121.63
2178.04,5113.88
2184.52,5106.74
2191.66,5100.26
2199.41,5094.51
2207.68,5089.56
2216.4,5085.43
2225.48,5082.18
2234.83,5079.84
2244.37,5078.43
2254,5077.95
2687.39,5077.95
Z" /> 
</g>
<g >
</g>
<g style="fill:#848400; fill-opacity:1.0; 
stroke:#848400; stroke-width:0; stroke-opacity:1; 
stroke-linecap:round; stroke-linejoin:round;">
<circle cx="2484.48" cy="8692.91" r="334.646" /> 
<circle cx="2484.48" cy="7692.91" r="334.646" /> 
<circle cx="3484.48" cy="8692.91" r="334.646" /> 
<path style="fill:#848400; fill-opacity:1.0; 
stroke:#848400; stroke-width:0; stroke-opacity:1; 
stroke-linecap:round; stroke-linejoin:round;fill-rule:evenodd;"
d="M 3149.83,7358.27
3819.12,7358.27
3819.12,8027.56
3149.83,8027.56
Z" /> 
</g>
<g >
</g>
<g >
</g>
<g style="fill:#840000; fill-opacity:1.0; 
stroke:#840000; stroke-width:0; stroke-opacity:1; 
stroke-linecap:round; stroke-linejoin:round;">
<circle cx="1379.36" cy="6807.09" r="196.85" /> 
</g>
<g style="fill:#840000; fill-opacity:1.0; 
stroke:#840000; stroke-width:39.3701; stroke-opacity:1; 
stroke-linecap:round; stroke-linejoin:round;">
</g>
<g >
</g>
<g style="fill:#840000; fill-opacity:1.0; 
stroke:#840000; stroke-width:39.3701; stroke-opacity:1; 
stroke-linecap:round; stroke-linejoin:round;">
</g>
<g style="fill:#840000; fill-opacity:1.0; 
stroke:#840000; stroke-width:0; stroke-opacity:1; 
stroke-linecap:round; stroke-linejoin:round;">
<circle cx="4579.36" cy="6807.09" r="196.85" /> 
</g>
<g style="fill:#840000; fill-opacity:1.0; 
stroke:#840000; stroke-width:39.3701; stroke-opacity:1; 
stroke-linecap:round; stroke-linejoin:round;">
</g>
<g >
</g>
<g >
</g>
<g >
</g>
<g >
</g>
<g >
</g>
<g style="fill:#840000; fill-opacity:1.0; 
stroke:#840000; stroke-width:39.3701; stroke-opacity:1; 
stroke-linecap:round; stroke-linejoin:round;">
<g >
</g>
<g style="fill:#840000; fill-opacity:1.0; 
stroke:#840000; stroke-width:100; stroke-opacity:1; 
stroke-linecap:round; stroke-linejoin:round;">
<path style="fill:#840000; fill-opacity:1.0; 
stroke:#840000; stroke-width:100; stroke-opacity:1; 
stroke-linecap:round; stroke-linejoin:round;fill-rule:evenodd;"
d="M 4869.52,6402.61
4820.77,6380.92
4734.91,6361.52
4646.92,6359.25
4560.17,6374.18
4478,6405.75
4457.53,6416.7
4443.7,6500.72
4679.36,6736.38
4684.93,6730.81
4755.64,6801.52
4750.07,6807.09
4755.64,6812.66
4684.93,6883.37
4679.36,6877.8
4443.7,7113.45
4457.53,7197.48
4537.95,7233.25
4623.81,7252.65
4711.8,7254.93
4798.55,7239.99
4869.52,7212.72
4869.52,8036.61
4069.44,8036.61
4070.33,8027.56
4069.12,7805.41
4006.62,7742.91
3534.48,7742.91
3534.48,7750.79
3434.48,7750.79
3434.48,7742.91
3426.6,7742.91
3426.6,7642.91
3434.48,7642.91
3434.48,7170.77
3534.48,7170.77
3534.48,7642.91
4006.62,7642.91
4069.12,7580.41
4070.33,7358.27
4065.51,7309.26
4051.21,7262.13
4028,7218.7
3996.75,7180.64
3958.69,7149.4
3915.26,7126.18
3868.13,7111.89
3819.12,7107.06
3596.98,7108.27
3534.48,7170.77
3434.48,7170.77
3371.98,7108.27
3337.63,7108.08
3337.63,6839.53
4231.52,6839.53
4246.45,6926.28
4278.03,7008.44
4288.97,7028.92
4372.99,7042.74
4608.65,6807.09
4372.99,6571.43
4288.97,6585.26
4253.19,6665.68
4233.8,6751.54
4231.52,6839.53
3337.63,6839.53
3337.63,5942
3387.31,5954.45
3498.46,5959.93
3608.54,5943.62
3713.33,5906.14
3762.63,5879.79
3790.81,5783.74
3470.7,5463.62
3465.13,5469.19
3394.42,5398.48
3399.99,5392.91
3541.41,5392.91
3861.52,5713.03
3957.58,5684.85
4005.17,5584.25
4032.23,5476.31
4037.71,5365.15
4021.4,5255.07
3983.93,5150.28
3957.58,5100.98
3861.52,5072.8
3541.41,5392.91
3399.99,5392.91
3394.42,5387.35
3465.13,5316.64
3470.7,5322.2
3790.81,5002.09
3786.39,4987.01
4869.52,4987.01
Z" /> 
</g>
</g>
<g style="fill:#840000; fill-opacity:1.0; 
stroke:#840000; stroke-width:100; stroke-opacity:1; 
stroke-linecap:round; stroke-linejoin:round;">
<g >
<path style="fill:#840000; fill-opacity:1.0; 
stroke:#840000; stroke-width:100; stroke-opacity:1; 
stroke-linecap:round; stroke-linejoin:round;fill-rule:evenodd;"
d="M 1909.35,5028.94
1904.53,5077.95
1905.74,5280.41
1968.24,5342.91
2420.7,5342.91
2420.7,5335.04
2520.7,5335.04
2520.7,5342.91
2528.57,5342.91
2528.57,5442.91
2520.7,5442.91
2520.7,5895.37
2583.2,5957.87
2647.08,5958.26
2647.08,7132.1
2624.98,7125.4
2534.48,7173.17
2534.48,7642.91
2542.35,7642.91
2542.35,7742.91
2534.48,7742.91
2534.48,7750.79
2434.48,7750.79
2434.48,7742.91
1964.47,7742.91
1916.96,7833.42
1955.28,7941.44
2011.97,8036.61
1089.75,8036.61
1089.72,7552.41
1916.96,7552.41
1964.47,7642.91
2434.48,7642.91
2434.48,7173.17
2343.97,7125.4
2286.01,7142.98
2182.54,7192.27
2090.67,7260.79
2013.93,7345.92
1955.28,7444.39
1916.96,7552.41
1089.72,7552.41
1089.69,7117.47
1093.7,7113.45
1107.53,7197.48
1187.95,7233.25
1273.81,7252.65
1361.8,7254.93
1448.55,7239.99
1530.71,7208.42
1551.19,7197.48
1565.01,7113.45
1329.36,6877.8
1323.79,6883.37
1253.08,6812.66
1258.65,6807.09
1400.07,6807.09
1635.72,7042.74
1719.75,7028.92
1755.52,6948.49
1774.92,6862.64
1777.2,6774.64
1762.26,6687.9
1730.69,6605.73
1719.75,6585.26
1635.72,6571.43
1400.07,6807.09
1258.65,6807.09
1253.08,6801.52
1323.79,6730.81
1329.36,6736.38
1565.01,6500.72
1551.19,6416.7
1470.77,6380.92
1384.91,6361.52
1296.92,6359.25
1210.17,6374.18
1128,6405.75
1107.53,6416.7
1093.7,6500.72
1089.65,6496.66
1089.59,5707.87
1904.53,5707.87
1909.35,5756.88
1923.65,5804.01
1946.86,5847.44
1978.1,5885.51
2016.17,5916.75
2059.6,5939.96
2106.73,5954.26
2155.74,5959.08
2358.2,5957.87
2420.7,5895.37
2420.7,5442.91
1968.24,5442.91
1905.74,5505.41
1904.53,5707.87
1089.59,5707.87
1089.54,4987.01
1922.08,4987.01
Z" /> 
</g>
</g>
</g>
<g style="fill:#FFFFFF; fill-opacity:1.0; 
stroke:#FFFFFF; stroke-width:100; stroke-opacity:1; 
stroke-linecap:round; stroke-linejoin:round;">
</g>
<g style="fill:#FFFFFF; fill-opacity:1.0; 
stroke:#FFFFFF; stroke-width:0; stroke-opacity:1; 
stroke-linecap:round; stroke-linejoin:round;">
<circle cx="2470.7" cy="4290.55" r="157.48" /> 
</g>
<g style="fill:#FFFFFF; fill-opacity:1.0; 
stroke:#FFFFFF; stroke-width:39.3701; stroke-opacity:1; 
stroke-linecap:round; stroke-linejoin:round;">
</g>
<g style="fill:#FFFFFF; fill-opacity:1.0; 
stroke:#FFFFFF; stroke-width:0; stroke-opacity:1; 
stroke-linecap:round; stroke-linejoin:round;">
<circle cx="3470.7" cy="4290.55" r="157.48" /> 
</g>
<g style="fill:#FFFFFF; fill-opacity:1.0; 
stroke:#FFFFFF; stroke-width:39.3701; stroke-opacity:1; 
stroke-linecap:round; stroke-linejoin:round;">
</g>
<g style="fill:#FFFFFF; fill-opacity:1.0; 
stroke:#FFFFFF; stroke-width:0; stroke-opacity:1; 
stroke-linecap:round; stroke-linejoin:round;">
<circle cx="3470.7" cy="5392.91" r="157.48" /> 
</g>
<g style="fill:#FFFFFF; fill-opacity:1.0; 
stroke:#FFFFFF; stroke-width:39.3701; stroke-opacity:1; 
stroke-linecap:round; stroke-linejoin:round;">
</g>
<g style="fill:#FFFFFF; fill-opacity:1.0; 
stroke:#FFFFFF; stroke-width:0; stroke-opacity:1; 
stroke-linecap:round; stroke-linejoin:round;">
<circle cx="2470.7" cy="5392.91" r="157.48" /> 
</g>
<g style="fill:#FFFFFF; fill-opacity:1.0; 
stroke:#FFFFFF; stroke-width:39.3701; stroke-opacity:1; 
stroke-linecap:round; stroke-linejoin:round;">
</g>
<g style="fill:#FFFFFF; fill-opacity:1.0; 
stroke:#FFFFFF; stroke-width:0; stroke-opacity:1; 
stroke-linecap:round; stroke-linejoin:round;">
<circle cx="2484.48" cy="8692.91" r="196.85" /> 
</g>
<g style="fill:#FFFFFF; fill-opacity:1.0; 
stroke:#FFFFFF; stroke-width:39.3701; stroke-opacity:1; 
stroke-linecap:round; stroke-linejoin:round;">
</g>
<g style="fill:#FFFFFF; fill-opacity:1.0; 
stroke:#FFFFFF; stroke-width:0; stroke-opacity:1; 
stroke-linecap:round; stroke-linejoin:round;">
<circle cx="2484.48" cy="7692.91" r="196.85" /> 
</g>
<g style="fill:#FFFFFF; fill-opacity:1.0; 
stroke:#FFFFFF; stroke-width:39.3701; stroke-opacity:1; 
stroke-linecap:round; stroke-linejoin:round;">
</g>
<g style="fill:#FFFFFF; fill-opacity:1.0; 
stroke:#FFFFFF; stroke-width:0; stroke-opacity:1; 
stroke-linecap:round; stroke-linejoin:round;">
<circle cx="3484.48" cy="8692.91" r="196.85" /> 
</g>
<g style="fill:#FFFFFF; fill-opacity:1.0; 
stroke:#FFFFFF; stroke-width:39.3701; stroke-opacity:1; 
stroke-linecap:round; stroke-linejoin:round;">
</g>
<g style="fill:#FFFFFF; fill-opacity:1.0; 
stroke:#FFFFFF; stroke-width:0; stroke-opacity:1; 
stroke-linecap:round; stroke-linejoin:round;">
<circle cx="3484.48" cy="7692.91" r="196.85" /> 
</g>
<g style="fill:#FFFFFF; fill-opacity:1.0; 
stroke:#FFFFFF; stroke-width:39.3701; stroke-opacity:1; 
stroke-linecap:round; stroke-linejoin:round;">
</g>
<g style="fill:#FFFFFF; fill-opacity:1.0; 
stroke:#FFFFFF; stroke-width:0; stroke-opacity:1; 
stroke-linecap:round; stroke-linejoin:round;">
<circle cx="2982.51" cy="1692.91" r="629.921" /> 
</g>
<g style="fill:#FFFFFF; fill-opacity:1.0; 
stroke:#FFFFFF; stroke-width:39.3701; stroke-opacity:1; 
stroke-linecap:round; stroke-linejoin:round;">
</g>
<g style="fill:#000000; fill-opacity:1.0; 
stroke:#000000; stroke-width:39.3701; stroke-opacity:1; 
stroke-linecap:round; stroke-linejoin:round;">
</g>
<g style="fill:#008484; fill-opacity:1.0; 
stroke:#008484; stroke-width:39.3701; stroke-opacity:1; 
stroke-linecap:round; stroke-linejoin:round;">
</g>
<g style="fill:#008484; fill-opacity:0.0; 
stroke:#008484; stroke-width:39.3701; stroke-opacity:1; 
stroke-linecap:round; stroke-linejoin:round;">
</g>
<g style="fill:#008484; fill-opacity:0.0; 
stroke:#008484; stroke-width:59.0551; stroke-opacity:1; 
stroke-linecap:round; stroke-linejoin:round;">
<text x="4565.58" y="11433.1"
textLength="1539.09" font-size="1574.8" lengthAdjust="spacingAndGlyphs"
text-anchor="middle" opacity="0">-</text>
<path d="M4115 10926
L5015 10926
" />
<text x="1369.12" y="11433.1"
textLength="1539.09" font-size="1574.8" lengthAdjust="spacingAndGlyphs"
text-anchor="middle" opacity="0">+</text>
<path d="M919 10926
L1819 10926
" />
<path d="M1369 11376
L1369 10476
" />
</g>
<g style="fill:#008484; fill-opacity:0.0; 
stroke:#008484; stroke-width:47.2441; stroke-opacity:1; 
stroke-linecap:round; stroke-linejoin:round;">
<path d="M4399 3424
L1565 3424
" />
<path d="M4399 6259
L4399 3424
" />
<path d="M2470 6259
L4399 6259
" />
<path d="M1565 3424
L1565 5392
" />
<path d="M3984 7192
L3984 7692
" />
<path d="M3484 7192
L3984 7192
" />
<path d="M2334 8103
L2334 8282
" />
<path d="M2634 8103
L2634 8282
" />
<path d="M2334 9103
L2334 9259
" />
<path d="M2634 9103
L2634 9259
" />
<path d="M2334 12669
L2334 10307
" />
<path d="M2634 12669
L2334 12669
" />
<path d="M2634 10307
L2634 12669
" />
<path d="M2984 9259
L2984 10307
" />
<path d="M3334 8129
L3334 8282
" />
<path d="M3634 8129
L3634 8282
" />
<path d="M3334 9103
L3334 9259
" />
<path d="M3634 9103
L3634 9259
" />
<path d="M3374 10307
L3374 12669
" />
<path d="M3421 10307
L3421 12669
" />
<path d="M3468 10307
L3468 12669
" />
<path d="M3515 10307
L3515 12669
" />
<path d="M3563 10307
L3563 12669
" />
<path d="M3610 10307
L3610 12669
" />
<path d="M3334 12669
L3334 10307
" />
<path d="M3634 12669
L3334 12669
" />
<path d="M3634 10307
L3634 12669
" />
<path d="M4008 10307
L4008 9259
" />
<path d="M1960 10307
L4008 10307
" />
<path d="M1960 9259
L1960 10307
" />
<path d="M4008 9259
L1960 9259
" />
<circle cx="1379.36" cy="6807.09" r="275.591" /> 
<circle cx="4579.36" cy="6807.09" r="275.591" /> 
</g>
<g style="fill:#008484; fill-opacity:0.0; 
stroke:#008484; stroke-width:59.0551; stroke-opacity:1; 
stroke-linecap:round; stroke-linejoin:round;">
<g transform="rotate(-90 1229.36 5409.84)">
<text x="1229.36" y="5606.69"
textLength="864.173" font-size="524.934" lengthAdjust="spacingAndGlyphs"
text-anchor="middle" opacity="0">U1</text>
</g>
<path d="M1013 5709
L1332 5709
L1369 5691
L1388 5672
L1407 5634
L1407 5559
L1388 5522
L1369 5503
L1332 5484
L1013 5484
" />
<path d="M1407 5091
L1407 5316
" />
<path d="M1407 5203
L1013 5203
L1070 5241
L1107 5278
L1126 5316
" />
<text x="3582.9" y="6905.51"
textLength="751.687" font-size="524.934" lengthAdjust="spacingAndGlyphs"
text-anchor="middle" opacity="0">J1</text>
<path d="M3451 6493
L3451 6774
L3432 6830
L3395 6868
L3339 6886
L3301 6886
" />
<path d="M3845 6886
L3620 6886
" />
<path d="M3732 6886
L3732 6493
L3695 6549
L3657 6586
L3620 6605
" />
<g transform="rotate(-90 1280.93 7791.34)">
<text x="1280.93" y="7988.19"
textLength="1145.39" font-size="524.934" lengthAdjust="spacingAndGlyphs"
text-anchor="middle" opacity="0">An1</text>
</g>
<path d="M1346 8250
L1346 8063
" />
<path d="M1459 8288
L1065 8156
L1459 8025
" />
<path d="M1196 7894
L1459 7894
" />
<path d="M1234 7894
L1215 7875
L1196 7838
L1196 7781
L1215 7744
L1252 7725
L1459 7725
" />
<path d="M1459 7332
L1459 7556
" />
<path d="M1459 7444
L1065 7444
L1121 7482
L1159 7519
L1177 7556
" />
<g transform="rotate(-90 4579.36 8086.61)">
<text x="4579.36" y="8283.46"
textLength="1782.81" font-size="524.934" lengthAdjust="spacingAndGlyphs"
text-anchor="middle" opacity="0">Cath1</text>
</g>
<path d="M4719 8620
L4738 8639
L4757 8695
L4757 8733
L4738 8789
L4701 8827
L4663 8845
L4588 8864
L4532 8864
L4457 8845
L4420 8827
L4382 8789
L4363 8733
L4363 8695
L4382 8639
L4401 8620
" />
<path d="M4757 8283
L4551 8283
L4513 8302
L4494 8339
L4494 8414
L4513 8452
" />
<path d="M4738 8283
L4757 8320
L4757 8414
L4738 8452
L4701 8470
L4663 8470
L4626 8452
L4607 8414
L4607 8320
L4588 8283
" />
<path d="M4494 8152
L4494 8002
" />
<path d="M4363 8095
L4701 8095
L4738 8077
L4757 8039
L4757 8002
" />
<path d="M4757 7871
L4363 7871
" />
<path d="M4757 7702
L4551 7702
L4513 7721
L4494 7758
L4494 7814
L4513 7852
L4532 7871
" />
<path d="M4757 7308
L4757 7533
" />
<path d="M4757 7421
L4363 7421
L4420 7458
L4457 7496
L4476 7533
" />
<g >
</g>
</g>
<g style="fill:#000000; fill-opacity:0.0; 
stroke:#000000; stroke-width:59.0551; stroke-opacity:1; 
stroke-linecap:round; stroke-linejoin:round;">
<g >
</g>
<g >
</g>
<g >
</g>
<g >
</g>
<g >
</g>
<g >
</g>
<g >
</g>
<g >
</g>
<g >
</g>
<g >
</g>
</g>
<g style="fill:#000000; fill-opacity:0.0; 
stroke:#000000; stroke-width:59.0551; stroke-opacity:1; 
stroke-linecap:round; stroke-linejoin:round;">
</g>
<g style="fill:#848484; fill-opacity:0.0; 
stroke:#848484; stroke-width:59.0551; stroke-opacity:1; 
stroke-linecap:round; stroke-linejoin:round;">
</g>
<g style="fill:#848484; fill-opacity:0.0; 
stroke:#848484; stroke-width:19.685; stroke-opacity:1; 
stroke-linecap:round; stroke-linejoin:round;">
<path d="M1506 6318
L1506 3365
" />
<path d="M1506 6318
L4458 6318
" />
<path d="M4458 3365
L1506 3365
" />
<path d="M4458 3365
L4458 6318
" />
<path d="M4193 12850
L4193 6984
" />
<path d="M1771 12850
L4193 12850
" />
<path d="M1771 6984
L1771 12850
" />
<path d="M4193 6984
L1771 6984
" />
<circle cx="2982.51" cy="1692.91" r="1358.27" /> 
<circle cx="1379.36" cy="6807.09" r="393.701" /> 
<circle cx="4579.36" cy="6807.09" r="393.701" /> 
<g >
</g>
<g >
</g>
<g >
</g>
<g >
</g>
<g >
</g>
<g >
</g>
<g >
</g>
<g >
</g>
</g>
<g style="fill:#000000; fill-opacity:0.0; 
stroke:#000000; stroke-width:19.685; stroke-opacity:1; 
stroke-linecap:round; stroke-linejoin:round;">
<g >
</g>
<g >
</g>
<g >
</g>
<g >
</g>
<g >
</g>
<g >
</g>
<g >
</g>
<g >
</g>
</g>
<g style="fill:#000000; fill-opacity:0.0; 
stroke:#000000; stroke-width:19.685; stroke-opacity:1; 
stroke-linecap:round; stroke-linejoin:round;">
</g>
<g style="fill:#C2C200; fill-opacity:0.0; 
stroke:#C2C200; stroke-width:19.685; stroke-opacity:1; 
stroke-linecap:round; stroke-linejoin:round;">
<path d="M929 11459
L928 9
" />
<path d="M5029 11459
L929 11459
" />
<path d="M5029 9
L5029 11459
" />
<path d="M929 9
L5029 9
" />
<g >
</g>
<g >
</g>
<g >
</g>
<g >
</g>
<g >
</g>
<g >
</g>
<g >
</g>
<g >
</g>
</g> 
</svg>
